<svg xmlns="http://www.w3.org/2000/svg" width="900" height="900"><path fill="none" fill-opacity="0" stroke="none" stroke-opacity="0" stroke-width=".3" d="M0 900h900V0H0zm137-693c3.1-4.4 6.36-12.56 11.25-15.75S158.73 179.03 165 180c-5.42-6.93-1.23-16.62-5-24-3.17-6.2-4.79-14.22 4-17 .53-16.78 23.58-16.17 34-9 2.59 1.72 5.4 4.39 7 7 3.14 5.13 3.38 11.59 1 17-.29.65-.67 1.4-1 2-1.17 5.48.24 11.98-1 17-.05 2.32-1.95 3.99-2 6 .12.24.88 1.92 1 2 4.26 2.69 12.86 5.08 15.75 10.25 2.9 5.17 11.42 10.33 10.25 16.75 29.7-34.41 10.47-94.47-37-99 11.12.94 27.11-5.91 37.25 1.75 10.13 7.67 23.36 5.17 36.75 5.25s28.23.02 42 0 27.99.12 42 0 27.75.31 42 0 27.35.7 42 0 26.52 1.56 42 0 12.76 16.78 12 29 1.27 30.41 0 42 5.99 32.71-8 34c-13.99 1.28-28.05-.61-42 0s-28.12-.34-42 0-28.27-.31-42 0-28.61-.48-42 0-28.28-.99-41 0-29-3.57-38.75 3.25-16.11 11.52-27.27 14.73c-11.17 3.2-24.86 4.52-36 2.04-11.14-2.47-20.45-6.18-29.23-12.77-8.77-6.6-14.49-12.9-20.05-21.95-5.57-9.04-9.63-20.3-9.7-31.3-.33-4.46-.33-8.61 0-12 0-17.87 7.42-28.42 17.25-42.75S157.56 105.7 174 109c-44.93 3.78-67.86 65.47-37 98m446-19c7.86.3 14.27 3.23 21 6 13.26 5.46 23.53 19.89 28 33 .62 1.3 1.45 2.43 2 4 1.84 5.3 2.88 10.18 3 16 .38 3.14 1.39 5.73 0 9 0 .5-.17 1.57 0 2 1.98 4.91 4.74 7.66 6 13 .35 1.49 1.78 3.85 1 6 1.85.97 4.24 1.79 5 4 .36.22 1 0 1 0 3.37 1.65 6.85 6.11 9 9 4.18 5.62 7.52 13.01 8 20 .82 4.56 1.12 9.47 0 14-.93 3.74-2.05 6.63-4 10-1.02 1.77-1.35 2.8-3 4-.13.47 0 1 0 1 6.84 5.09 14.98 7.66 17.92 17.08 2.94 9.41 8.39 15.26 10.08 24.92 4.18 3.11 13.3 1.02 18.02 3.98 4.73 2.95 11.2 3.28 16.05 5.95 4.86 2.67 9.48 4.76 13.93 8.07 4.33 3.22 7.84 6.75 11 11 3.12 4.19 4.72 8.78 5 14 .56 3.42.48 6.66 0 10-.72 18.97-12.71 34.27-17.32 52.68-4.61 18.4-11.34 38.67-12.68 58.32-.43 6.27 0 12.72 0 19v3c7.92-5.16 18.87-21.83 26.25-27.75S779.67 514.49 778 532c-.99 10.34-5.21 19.52-9 29 13.84-14.9 28.84-29.94 45-42-.34 17.17.46 35.99 0 53s3.11 33.78-6 48c2.41-1.11 3.62-3.96 6-5-.91 16.09 4.37 39.8-7.75 51.25-12.13 11.44-18.91 19.47-32.5 27.5-13.58 8.03-25.58 13.32-40.82 18.18-15.25 4.85-34.32 8.3-50.93 9.07-12.06 1.17-31.43-1.18-41 7-7.57 6.47-15.78 14.54-23.25 20.75s-5.24 5.76-12 11-3.93 4.63-11.5 10.5c-7.57 5.86-16.13 15.63-23.95 21.05-7.82 5.43-13.71-1.14-21.3.7s-15.76-.78-23 0-14.63.32-21.01-.99-11.11-4.5-17.21-5.79-11.17-3.38-17-5c-5.84-1.62-11.12-3.28-16.85-5.15-5.74-1.86-12.18-3.29-17.95-5.05-5.77-1.75-10.84-3.71-16.66-5.34-5.82-1.64-11.75-3.7-17.54-5.46-5.8-1.76-11.26-3.06-17-5-5.74-1.93-12.05-3.23-17.8-5.2-5.76-1.96-11.13-3.12-17-5-5.87-1.87-10.8-3.36-17-5-6.21-1.63-10.51-4.17-17.2-5.8s-9.24-2.65-16.86-5.14c-7.61-2.5-8.25-1.76-17.99-5.01-9.75-3.25-23.9-7.54-33.94-10.06-10.03-2.53-8.81-3.7-17.21-5.79-8.41-2.08-8.72-2.49-17-5-8.29-2.51-8.03-2.1-17.8-5.2-9.78-3.09-24-7.01-33.67-10.33-9.68-3.31-10.39-2.62-17.98-5.02s-10.25-3.48-16.55-5.45c-6.3-1.96-12.33-3.36-17.8-5.2-5.48-1.83-12.58-3.52-17-5-4.43-1.48-2.68-19.17-.98-20.02.81-4.16 9.95-7.53 13.25-10.75S114.93 627.79 119 625c3.98-2.73 8.72-5.79 12-9-5-9.36-12.02-15.96-15.77-26.23S107.85 567.96 106 557c-1.98-11.69-3.77-23.03-1.22-35.22s16.03-8.93 20.14.3S137.21 536.74 139 547c-1.41-27.36-15.14-57.27-9-86 22.58 18.3 31.42 50.03 40 77 1.76-23.67-4.91-51.33 2-75 8.47 12.29 9.94 27.32 13.98 42.02 4.03 14.7 7.17 31.52 9.02 46.98.66-7.42 2.16-24.96 2-32s1.26-27.53 7.75-21.75 5.28 18.05 8.23 25.77c2.94 7.73 4.71 20.02 6.02 27.98.53-.49 1.37-.73 2-1 1.88-1.51 4.31-3.35 6-5-1.17-13 .2-26.98 0-40s-.57-28.28 0-41-1.73-29.22 0-41-5.44-30.27 3-38c1.53-1.84 5.8-5.17 8-6 11.11-4.18 25.19 6.31 37.22 6.78s25.56 6.27 37.85 8.15c12.3 1.88 25.6 5.39 38 8 12.41 2.6 25.5 5.1 37.95 8.05 12.46 2.95 25.52 4.83 37.99 8.01 12.46 3.18 25.54 4.64 37.99 8.01 5.31-1.94 6.26-14.53 9.78-19.22s6.42-13.77 9.53-19.47c3.1-5.71 6.67-13.37 9.46-19.54s7.06-13.46 9.15-19.85c2.1-6.38 12.87-11.09 13.08-16.92.13-3.53-2.55-7.56-2-12 .3-2.44 1.09-3.13 2-5 2.98-6.11 5.87-9.11 13-10 .69-.18 3.06-.66 4-1 2.6-1.47 3.14-3.04 3-6-1.74-.51-5.79-6.37-7-8-5.68-7.64-6.52-19.11-1-27 2.5-11.49-.59-25.86 1-37 .78-20.48 21.28-37.61 41-38 4.23-.51 8.81-.6 13 0m176 23c1.66 1.05 1.36 1.3 2 3 2.03 5.36 1.03 12.79 1 19s1.04 14.61-1 20c-.63 1.66-.39 1.98-2 3-6.38 4.04-17.46-.77-25 1s-17.94-2.57-25 1c-3.84 2.77-8.38 11.97-13 13-3.21.72-2.35-10.07-2-14-3.77 0-13.7 1.98-15-3-.12-.47 0-1 0-1-2.81-3.8-1.1-13.94-1-19s-1.87-16.12 1-20v-1c1.53-5.87 12.74-2.42 18-3s15-.01 21 0 14.93-.61 21 0 15.15-2.07 20 1m-484 43c20.53 5.09 31.62 29.02 19 48-2.18 3.28-5.78 6.86-9 9-3.6 2.4-7.7 3.71-12 4-3.47.62-6.6.55-10 0-12.01-.65-21.51-9.96-25-21-1.52-4.82-1.78-9.17-1-14 2.18-13.42 10.4-23.18 24-26 4.55-.94 9.5-1.12 14 0m126 47c32.54 1.36 30.52 54.19-3 52s-29.67-53.37 3-52m347 20c-4.69 3.07-8.89 7.4-12 12-2.8-4.58-6.73-9.53-12-11 3.83-3.35 10.2-6.19 11-12 4.92 2.32 6.7 9.63 13 11m-547 18c2.39 4.86 5.93 8.96 11 11-3.92 3.68-9.24 6.32-11 12-3.68-3.92-6.32-9.24-12-11 4.38-3.33 8.08-8.23 12-12"/><path fill="none" fill-opacity="0" stroke="#E8D63C" stroke-opacity=".99" stroke-width=".3" d="M110 163v11c.07 12 4.13 23.26 9.7 32.3 5.56 9.05 11.28 15.35 20.05 21.95 8.78 6.59 18.09 10.3 29.23 12.77 11.14 2.48 24.83 1.16 36-2.04 11.16-3.21 17.52-7.91 27.27-14.73s26.03-2.26 38.75-3.25 27.61.48 41 0 28.27.31 42 0 28.12.34 42 0 28.05.61 42 0 28.01 1.28 42 0c13.99-1.29 6.73-22.41 8-34s-.76-29.78 0-42 3.48-30.56-12-29-27.35-.7-42 0-27.75-.31-42 0-27.99-.12-42 0-28.23-.02-42 0-28.61.08-42 0-26.62 2.42-36.75-5.25c-10.14-7.66-26.13-.81-37.25-1.75 47.47 4.53 66.7 64.59 37 99-4.29 4.97-8.61 8.63-14 12-18.96 11.86-44.26 12.22-63 0-5.88-3.83-10.61-7.33-15-13-30.86-32.53-7.93-94.22 37-98-16.44-3.3-36.92-3.08-46.75 11.25S110 145.13 110 163m163-13c3.3 8.15 8.43 13.95 18 13 .01 4.46-5.07 7.27-8 10 .51 4.36 1.77 8.54 2 13-4.81 1.68-8.07-4.67-12.23-4.77s-8.02 6.36-12.77 4.77c.22-4.44 1.49-8.6 2-13-5.63-2.35-11.47-12.24-2-11 9.48 1.24 6.69-8.7 13-12m58 36c-8.43-3.5-15.81-4.49-24 0 3.65-9.98-2.8-15.53-7-23 9.38.56 15.6-3.94 18-13 5.98-.55 3.63 11.92 9.23 11.77 5.6-.16 14.65 2.31 7.02 7.48S331.83 179 331 186m53-23c-4.23 7.5-10.62 12.98-7 23-8.48-3.97-15.38-3.76-24 0-.94-6.14 4.38-11.84-2.75-16.25s-1.59-8.39 4.75-7.75 5.65-9.02 9-12c5.75 5.87 8.84 14.93 20 13m46 0c-4.22 7.47-11.05 13.31-6 23-4.81 1.68-8.07-4.67-12.23-4.77s-8.02 6.36-12.77 4.77c.22-4.44 1.49-8.6 2-13-4.6-1.75-11.95-11.96-2.99-10.99 8.96.96 8.69-6.64 12.99-12.01 5.04 6.82 8.61 14.51 19 13m40 23c-4.8.76-8.41-4.14-13.01-3.99-4.59.15-7.36 6.19-11.99 2.99 5.83-9.18-2.66-14.78-6-22 9.38.56 15.6-3.94 18-13 5.94-.45 3.48 11.97 9.23 11.77 5.75-.21 14.57 2.33 7.02 7.48-7.56 5.14-2.48 9.77-3.25 16.75Z"/><path fill="none" fill-opacity="0" stroke="#2B2246" stroke-opacity=".98" stroke-width=".3" d="M160 156c.83.76 2.04 1.48 3 2 2.76-3.68 6.04-7.16 6-12 11.12 6.87 24.49 10.87 37 8 2.38-5.41 2.14-11.87-1-17-1.35-1.87-5.22-5.61-7-7-10.42-7.17-33.47-7.78-34 9-8.79 2.78-7.17 10.8-4 17Z"/><path fill="none" fill-opacity="0" stroke="#9D98AA" stroke-opacity=".45" stroke-width=".3" d="M205 137c-1.6-2.61-4.41-5.28-7-7 1.78 1.39 5.65 5.13 7 7Z"/><path fill="none" fill-opacity="0" stroke="#F3AB91" stroke-opacity=".99" stroke-width=".3" d="M160 156c3.77 7.38-.42 17.07 5 24 .98 1.26 2.91 2.79 4 4 4.01 4.47 4.85 16.94 14.03 16.98 9.17.03 10.67-12.63 14.97-16.98 2.31-2.33 1.92-3.32 5-3-.12-.08-.88-1.76-1-2-1.04-2.02.61-5.02 2-7 0-4.85-1.16-12.08 1-16 .33-.6.71-1.35 1-2-12.51 2.87-25.88-1.13-37-8 .04 4.84-3.24 8.32-6 12-.96-.52-2.17-1.24-3-2m31 31c-1.29 7.92-13.51 7.99-15 0z"/><path fill="none" fill-opacity="0" stroke="#EC783C" stroke-width=".3" d="M273 150c-6.31 3.3-3.52 13.24-13 12-9.47-1.24-3.63 8.65 2 11-.51 4.4-1.78 8.56-2 13 4.75 1.59 8.61-4.87 12.77-4.77s7.42 6.45 12.23 4.77c-.23-4.46-1.49-8.64-2-13 2.93-2.73 8.01-5.54 8-10-9.57.95-14.7-4.85-18-13Z"/><path fill="none" fill-opacity="0" stroke="#EC793C" stroke-width=".3" d="M331 186c.83-7-4.38-11.58 3.25-16.75s-1.42-7.64-7.02-7.48c-5.6.15-3.25-12.32-9.23-11.77-2.4 9.06-8.62 13.56-18 13 4.2 7.47 10.65 13.02 7 23 8.19-4.49 15.57-3.5 24 0ZM384 163c-11.16 1.93-14.25-7.13-20-13-3.35 2.98-2.66 12.64-9 12s-11.88 3.34-4.75 7.75 1.81 10.11 2.75 16.25c8.62-3.76 15.52-3.97 24 0-3.62-10.02 2.77-15.5 7-23Z"/><path fill="none" fill-opacity="0" stroke="#EC783C" stroke-width=".3" d="M430 163c-10.39 1.51-13.96-6.18-19-13-4.3 5.37-4.03 12.97-12.99 12.01-8.96-.97-1.61 9.24 2.99 10.99-.51 4.4-1.78 8.56-2 13 4.75 1.59 8.61-4.87 12.77-4.77s7.42 6.45 12.23 4.77c-5.05-9.69 1.78-15.53 6-23Z"/><path fill="none" fill-opacity="0" stroke="#EC793C" stroke-width=".3" d="M470 186c.77-6.98-4.31-11.61 3.25-16.75 7.55-5.15-1.27-7.69-7.02-7.48-5.75.2-3.29-12.22-9.23-11.77-2.4 9.06-8.62 13.56-18 13 3.34 7.22 11.83 12.82 6 22 4.63 3.2 7.4-2.84 11.99-2.99 4.6-.15 8.21 4.75 13.01 3.99Z"/><path fill="none" fill-opacity="0" stroke="#F8D2C3" stroke-opacity=".17" stroke-width=".3" d="M204 172v1c1.24-5.02-.17-11.52 1-17-2.16 3.92-1 11.15-1 16Z"/><path fill="none" fill-opacity="0" stroke="#F7F2BE" stroke-opacity=".22" stroke-width=".3" d="M110 174v-11c-.33 3.39-.33 7.54 0 11Z"/><path fill="none" fill-opacity="0" stroke="#F5B198" stroke-opacity=".46" stroke-width=".3" d="M202 179c.05-2.01 1.95-3.68 2-6v-1c-1.39 1.98-3.04 4.98-2 7Z"/><path fill="none" fill-opacity="0" stroke="#5B499B" stroke-opacity=".98" stroke-width=".3" d="M137 207c4.39 5.67 9.12 9.17 15 13-1.44-4.2 4.4-16.65 5.93-20.07 1.52-3.43 7.19-16.01 11.07-15.93-1.09-1.21-3.02-2.74-4-4-6.27-.97-11.86 8.06-16.75 11.25S140.1 202.6 137 207Z"/><path fill="none" fill-opacity="0" stroke="#5B4A9C" stroke-opacity=".97" stroke-width=".3" d="M198 184c3.7.2 9.05 12.13 10.31 15.69 1.25 3.57 8.13 16.12 6.69 20.31 5.39-3.37 9.71-7.03 14-12 1.17-6.42-7.35-11.58-10.25-16.75-2.89-5.17-11.49-7.56-15.75-10.25-3.08-.32-2.69.67-5 3Z"/><path fill="none" fill-opacity="0" stroke="#947FE4" stroke-width=".3" d="M152 220c18.74 12.22 44.04 11.86 63 0 1.44-4.19-5.44-16.74-6.69-20.31-1.26-3.56-6.61-15.49-10.31-15.69-4.3 4.35-5.8 17.01-14.97 16.98-9.18-.04-10.02-12.51-14.03-16.98-3.88-.08-9.55 12.5-11.07 15.93-1.53 3.42-7.37 15.87-5.93 20.07Z"/><path fill="none" fill-opacity="0" stroke="#362848" stroke-width=".3" d="M191 187h-15c1.49 7.99 13.71 7.92 15 0Z"/><path fill="none" fill-opacity="0" stroke="#DAD9FF" stroke-opacity=".07" stroke-width=".3" d="M570 188c4.31-.09 8.69-.16 13 0-4.19-.6-8.77-.51-13 0Z"/><path fill="none" fill-opacity="0" stroke="#937FE4" stroke-opacity=".97" stroke-width=".3" d="M529 226c-.44 11.49 1.4 23.6 0 35 2.51-3.51 6.17-4.68 5-10s.21-10.6 1-15c1.57-23.1 25.03-34.1 45.02-31.02 20 3.07 38.3 27.33 29.98 48.02 3.61-1.38 10.02-1.56 14-1-.34-10.75 1.52-27.89-2.98-37.02-4.49-9.14-10.75-16.66-17.02-20.98-6.73-2.77-13.14-5.7-21-6-4.31-.16-8.69-.09-13 0-19.72.39-40.22 17.52-41 38Z"/><path fill="none" fill-opacity="0" stroke="#30274D" stroke-opacity=".96" stroke-width=".3" d="M624 252c3.76.52 10.21 3.55 13 6-.17-.43 0-1.5 0-2 0-3 .06-6 0-9-.12-5.82-1.16-10.7-3-16-.64-1.32-1.46-2.4-2-4-4.47-13.11-14.74-27.54-28-33 6.27 4.32 12.53 11.84 17.02 20.98 4.5 9.13 2.64 26.27 2.98 37.02Z"/><path fill="none" fill-opacity="0" stroke="#271E43" stroke-width=".3" d="M535 236c-.45 6.64.34 13.36 0 20 .94-.57 1.82-1.15 3-1 .06-2.26-.53-4.42 1-6 2.17-2.24 7.38-.31 10.07-2.93 2.7-2.61 7.56-1.44 10.93-1.07-.11-8.97 13.94-13.92 17-23 .75 5.81 2.34 11.41 4 17-3.53.22-6.72 1.78-10 3 2.85 4.13 13.04-1.25 15.25 6.75 2.22 7.99 8.13 7.98 12.75 13.25 1.86-2.77 8.2-7.93 11-9 8.32-20.69-9.98-44.95-29.98-48.02-19.99-3.08-43.45 7.92-45.02 31.02Z"/><path fill="none" fill-opacity="0" stroke="#EBA48B" stroke-opacity=".54" stroke-width=".3" d="M679 213c3.9-5.56 18.15-1.37 25-2s19.49-.92 27 0 20.94-2.9 28 0c-4.85-3.07-13.93-.39-20-1s-15 .01-21 0-15.74-.58-21 0-16.47-2.87-18 3Z"/><path fill="none" fill-opacity="0" stroke="#EC773D" stroke-width=".3" d="M679 213v1c0 13 .01 26 0 39 0 0-.12.53 0 1 3.5 4.99 12.43-.71 16 3 .4 4.52-1.12 10.31 1 14 4.62-1.03 9.16-10.23 13-13 12.37-8.93 35.98 3.77 50-2 1.61-1.02 1.37-1.34 2-3 1.27-5.82.08-12.96 0-19s1.29-14.07 0-20c-.64-1.7-.34-1.95-2-3-7.06-2.9-20.49.92-28 0s-20.15-.63-27 0-21.1-3.56-25 2m43 9c4.1 2.59-7.63 6.15-11 4s-13.11 2.89-16.67-.33 7-5.19 10.67-3.67 13.5-2.21 17 0m24 9c4.2 2.65-6.27 4.92-10 4s-12.5-.03-17 0-11.34-1.17-16 0-13.21-2.21-6.97-3.97 10.43.21 15.97-.03 12.01-.85 17 0 13.03-2.51 17 0m0 8c4.2 2.65-6.27 4.92-10 4s-12.5-.03-17 0-11.34-1.17-16 0-13.21-2.21-6.97-3.97 10.42.21 15.97-.03 12.01-.85 17 0 13.03-2.51 17 0Z"/><path fill="none" fill-opacity="0" stroke="#E6E6E6" stroke-opacity=".04" stroke-width=".3" d="M679 253c.01-13 0-26 0-39-2.87 3.88-.9 14.94-1 20s-1.81 15.2 1 19Z"/><path fill="none" fill-opacity="0" stroke="#EAC6CD" stroke-opacity=".14" stroke-width=".3" d="M761 253c2.04-5.39.97-13.79 1-20s1.03-13.64-1-19c1.29 5.93-.08 13.96 0 20s1.27 13.18 0 19Z"/><path fill="none" fill-opacity="0" stroke="#F4AB90" stroke-width=".3" d="M539 249v16c0 10.68 1.01 25.08 7 34 3.54 5.26 11.1 7.91 17 8v3c3.97 8.02-4.67 12.98-3 21s1.37 15.78 2 24c17-8.12 32.26-20.41 49-29-4.49 5.94-8.63 8.61-13.25 14.75-4.61 6.14.62 19.16-2.75 26.25-2.43 25.85-6.81 60.17-5 86s-.05 53.49 19.25 71.75S657.46 517.58 667 501c.76-1.33 3.03-4.51 3-6-4.73-5.76-7.35-12.36-13.3-17.7s-9.01-13.24-10.01-20.99c-.99-7.76-6.93-17.92-3.69-24.31-6.03-6.15-7.28-17.27-8-25 .01-.13-.8-.68-1-1-4.95-7.92-3.2-17.65-7.78-26.22-4.57-8.57 3.95-15.8 7.03-23.53 3.09-7.72 10.46-15.28 11.75-23.25.78-4.82-1.17-12.95 1.99-17.01S644.98 300.1 643 306c.57 8.49-1.52 19.37-8 25 5.5-7.15 5.22-16.8 7-25 .63-7.41-7.44-7.73-7-1 .55 8.33-.96 18.81-8 24 5.46-6.78 6.03-15.97 7-24 .98-11.67-9.2-4.51-7 3s-3.55 13.06-7 18c4.84-8.02 6.49-17.25 6-27-1.56.41-5.55 1-7 1 .23.35.13 1.54 0 2-1.3 4.69-2.92 9.91-5 14-.93-4.67-2.27-9.24-3-14-.08-.49 0-1 0-1-6.59.87-12.14 10.01-19.22 9.78-7.09-.24-12.31 14-19.52 5.96-7.21-8.03 5.08-12.88 11.96-11.52 6.89 1.36 14.5-7.93 20.78-9.22-8.65-8.73-12.28-22.61-6-34-4.62-5.27-10.53-5.26-12.75-13.25-2.21-8-12.4-2.62-15.25-6.75 3.28-1.22 6.47-2.78 10-3-1.66-5.59-3.25-11.19-4-17-3.06 9.08-17.11 14.03-17 23-3.37-.37-8.23-1.54-10.93 1.07-2.69 2.62-7.9.69-10.07 2.93m11 4c4.7 1.69 3.23 14.55-2.68 12.66s-4-15.06 2.68-12.66m29 0c5 1.6 3.13 14.64-2.68 12.66-5.81-1.97-4.14-14.84 2.68-12.66m-26 22c.17-.05 6.07 1.07 5 3-2.19-.52-5.62 1.14-7-1-1.3-2.06 2.78-7.51 2.98-10.02.19-2.51 2.94-8.28 5.02-8.98-1.97 5.7-4.57 11.12-6 17m33 3c-2.43 12.89-22.02 19.46-28 6 10 .6 19.03-2.76 28-6Z"/><path fill="none" fill-opacity="0" stroke="#FDF7F4" stroke-width=".3" d="M722 222c-3.5-2.21-13.33 1.52-17 0s-14.23.45-10.67 3.67 13.3-1.82 16.67.33 15.1-1.41 11-4Z"/><path fill="none" fill-opacity="0" stroke="#B7A9F0" stroke-opacity=".35" stroke-width=".3" d="M528 263c.61-.87.84-.68 1-2 1.4-11.4-.44-23.51 0-35-1.59 11.14 1.5 25.51-1 37Z"/><path fill="none" fill-opacity="0" stroke="#A9A5C4" stroke-opacity=".36" stroke-width=".3" d="M634 231c-.55-1.57-1.38-2.7-2-4 .54 1.6 1.36 2.68 2 4Z"/><path fill="none" fill-opacity="0" stroke="#FDF5F1" stroke-width=".3" d="M746 231c-3.97-2.51-12.01.85-17 0s-11.46-.24-17 0-9.73-1.73-15.97.03 2.31 5.14 6.97 3.97 11.5.03 16 0 13.27-.92 17 0 14.2-1.35 10-4Z"/><path fill="none" fill-opacity="0" stroke="#5B499A" stroke-opacity=".98" stroke-width=".3" d="M529 261c-.16 1.32-.39 1.13-1 2-5.52 7.89-4.68 19.36 1 27 1.89 2.17 5.55 3.78 7 6 3.3 2.04 6.7 1.63 10 3-5.99-8.92-7-23.32-7-34-.27-2.77-1.1-6.54-1-10-1.18-.15-2.06.43-3 1 .34-6.64-.45-13.36 0-20-.79 4.4-2.17 9.68-1 15s-2.49 6.49-5 10Z"/><path fill="none" fill-opacity="0" stroke="#FBE2D5" stroke-width=".3" d="M746 239c-3.97-2.51-12.01.85-17 0s-11.45-.24-17 0-9.73-1.73-15.97.03 2.31 5.14 6.97 3.97 11.5.03 16 0 13.27-.92 17 0 14.2-1.35 10-4m0 2c-16.26 1.66-35.81 1.67-52 0 16.26-1.66 35.81-1.67 52 0Z"/><path fill="none" fill-opacity="0" stroke="#FEFCFC" stroke-width=".3" d="M746 241c-16.19-1.67-35.74-1.66-52 0 16.19 1.67 35.74 1.66 52 0Z"/><path fill="none" fill-opacity="0" stroke="#DCDBE9" stroke-opacity=".06" stroke-width=".3" d="M637 256c1.39-3.27.38-5.86 0-9 .06 3 0 6 0 9Z"/><path fill="none" fill-opacity="0" stroke="#9B7084" stroke-width=".3" d="M538 255c-.1 3.46.73 7.23 1 10v-16c-1.53 1.58-.94 3.74-1 6Z"/><path fill="none" fill-opacity="0" stroke="#5A4799" stroke-width=".3" d="M610 253c-2.8 1.07-9.14 6.23-11 9-6.28 11.39-2.65 25.27 6 34-6.28 1.29-13.89 10.58-20.78 9.22-6.88-1.36-19.17 3.49-11.96 11.52 7.21 8.04 12.43-6.2 19.52-5.96 7.08.23 12.63-8.91 19.22-9.78 1.19-4.02 6.23-1.01 8-1 1.45 0 5.44-.59 7-1 8.18-2.15 17.42-12.68 18-21 .1-1.42-.76-5.27-1-7-1.26-5.34-4.02-8.09-6-13-2.79-2.45-9.24-5.48-13-6-3.98-.56-10.39-.38-14 1m18 4c20.49 5.08 11.97 43.48-9.07 37.07-21.05-6.4-13.83-42.74 9.07-37.07Z"/><path fill="none" fill-opacity="0" stroke="#B7ABF0" stroke-opacity=".35" stroke-width=".3" d="M261 254c4.33-.39 9.69-.53 14 0-4.5-1.12-9.45-.94-14 0Z"/><path fill="none" fill-opacity="0" stroke="#2E2345" stroke-width=".3" d="M550 253c-6.68-2.4-8.59 10.77-2.68 12.66S554.7 254.69 550 253Z"/><path fill="none" fill-opacity="0" stroke="#2F2345" stroke-width=".3" d="M579 253c-6.82-2.18-8.49 10.69-2.68 12.66 5.81 1.98 7.68-11.06 2.68-12.66Z"/><path fill="none" fill-opacity="0" stroke="#9782E6" stroke-opacity=".95" stroke-width=".3" d="M237 280c-.15 4.51.21 9.57 1 14 3.49 11.04 12.99 20.35 25 21 3.25.18 6.75.22 10 0 4.3-.29 8.4-1.6 12-4 2.61-2.04 7-6.44 9-9 12.62-18.98 1.53-42.91-19-48-4.31-.53-9.67-.39-14 0-13.6 2.82-21.82 12.58-24 26m27-8c-4.04-1.02-10.29-6.11-13 0-8.99-6.37 15.19-10.96 13 0m23 0c-2.74-6.94-17.21 2.58-15.21-3.23S289.37 263.7 287 272m-1 11c4.54 25.09-41.25 25.38-36 0z"/><path fill="none" fill-opacity="0" stroke="#ECB3A7" stroke-opacity=".37" stroke-width=".3" d="M694 257h1c-3.57-3.71-12.5 1.99-16-3 1.3 4.98 11.23 3 15 3ZM709 258c7.06-3.57 17.46.77 25-1s18.62 3.04 25-1c-14.02 5.77-37.63-6.93-50 2Z"/><path fill="none" fill-opacity="0" stroke="#937EE4" stroke-width=".3" d="M628 257c-22.9-5.67-30.12 30.67-9.07 37.07 21.04 6.41 29.56-31.99 9.07-37.07Z"/><path fill="none" fill-opacity="0" stroke="#EBC4C2" stroke-opacity=".2" stroke-width=".3" d="M696 271c-2.12-3.69-.6-9.48-1-14h-1c-.35 3.93-1.21 14.72 2 14Z"/><path fill="none" fill-opacity="0" stroke="#4D3952" stroke-width=".3" d="M551 277c.37-.56 1.7-1.45 2-2 1.43-5.88 4.03-11.3 6-17-2.08.7-4.83 6.47-5.02 8.98-.2 2.51-4.28 7.96-2.98 10.02Z"/><path fill="none" fill-opacity="0" stroke="#F4F2FC" stroke-width=".3" d="M264 272c2.19-10.96-21.99-6.37-13 0 2.71-6.11 8.96-1.02 13 0Z"/><path fill="none" fill-opacity="0" stroke="#F4F3FC" stroke-width=".3" d="M287 272c2.37-8.3-13.21-9.04-15.21-3.23s12.47-3.71 15.21 3.23Z"/><path fill="none" fill-opacity="0" stroke="#B7B0D2" stroke-opacity=".32" stroke-width=".3" d="M644 278c.65.97 3.9 2.32 5 3-.76-2.21-3.15-3.03-5-4 .78-2.15-.65-4.51-1-6 .24 1.73 1.1 5.58 1 7Z"/><path fill="none" fill-opacity="0" stroke="#795661" stroke-width=".3" d="M551 277c1.38 2.14 4.81.48 7 1 1.07-1.93-4.83-3.05-5-3-.3.55-1.63 1.44-2 2Z"/><path fill="none" fill-opacity="0" stroke="#FEFAF9" stroke-width=".3" d="M586 278c-8.97 3.24-18 6.6-28 6 5.98 13.46 25.57 6.89 28-6Z"/><path fill="none" fill-opacity="0" stroke="#2A2145" stroke-opacity=".99" stroke-width=".3" d="M626 299c.49 9.75-1.16 18.98-6 27 3.45-4.94 9.2-10.49 7-18s7.98-14.67 7-3c.26-.25 1 0 1 0-.44-6.73 7.63-6.41 7 1 .26-.25 1 0 1 0 1.98-5.9 7.15 5.93 3.99 9.99S645.78 328.18 645 333c5.29.47 9.5 6.39 15 6 0 0-.13-.53 0-1 .53-1.96 2.03-2.65 3-4 1.95-3.37 3.07-6.26 4-10 .54-4.37.3-9.61 0-14-.48-6.99-3.82-14.38-8-20-2.74-3.15-6.57-5.52-9-9 0 0-.64.22-1 0-1.1-.68-4.35-2.03-5-3-.58 8.32-9.82 18.85-18 21Z"/><path fill="none" fill-opacity="0" stroke="#C4BBF4" stroke-opacity=".25" stroke-width=".3" d="M238 294c-.79-4.43-1.15-9.49-1-14-.78 4.83-.52 9.18 1 14Z"/><path fill="none" fill-opacity="0" stroke="#B1AAC4" stroke-opacity=".34" stroke-width=".3" d="M659 290c-2.15-2.89-5.63-7.35-9-9 2.43 3.48 6.26 5.85 9 9Z"/><path fill="none" fill-opacity="0" stroke="#FDFCFE" stroke-width=".3" d="M286 283h-36c-5.25 25.38 40.54 25.09 36 0Z"/><path fill="none" fill-opacity="0" stroke="#C2BCDF" stroke-opacity=".24" stroke-width=".3" d="M536 298c-.02-.5.23-1.65 0-2-1.45-2.22-5.11-3.83-7-6 1.21 1.63 5.26 7.49 7 8Z"/><path fill="none" fill-opacity="0" stroke="#2A2145" stroke-opacity=".98" stroke-width=".3" d="M536 298c.14 2.96-.4 4.53-3 6-1.41.79-2.14.77-4 1-7.13.89-10.02 3.89-13 10-.47 1.33-1.79 3.99-2 5-.55 4.44 2.13 8.47 2 12 4.15 4.51 20.32-7.18 27-6 .86-5.55 4.57-7.47 8.08-9.92s11.34-3.22 11.92-6.08v-3c-5.9-.09-13.46-2.74-17-8-3.3-1.37-6.7-.96-10-3 .23.35-.02 1.5 0 2Z"/><path fill="none" fill-opacity="0" stroke="#261D46" stroke-width=".3" d="M611 301s-.08.51 0 1c1.85.17 6.33.74 8 0 .13-.46.23-1.65 0-2-1.77-.01-6.81-3.02-8 1Z"/><path fill="none" fill-opacity="0" stroke="#D6CCFF" stroke-opacity=".91" stroke-width=".3" d="M401 301c-32.67-1.37-36.52 49.81-3 52s35.54-50.64 3-52m-6 21c-4.89-1.8-9.26-2.34-14 0-.51-8.23 14.24-7.43 14 0m23 0c-4.71-2.36-9.07-1.78-14 0-.26-7.39 14.51-8.26 14 0m-9 11c-3.96 7.59-15.06 7.53-19 0 6.18 1.27 12.82 1.26 19 0Z"/><path fill="none" fill-opacity="0" stroke="#C5BBF4" stroke-opacity=".26" stroke-width=".3" d="M285 311c3.22-2.14 6.82-5.72 9-9-2 2.56-6.39 6.96-9 9Z"/><path fill="none" fill-opacity="0" stroke="#F7F3F2" stroke-width=".3" d="M619 302c-1.67.74-6.15.17-8 0 .73 4.76 2.07 9.33 3 14 2.08-4.09 3.7-9.31 5-14Z"/><path fill="none" fill-opacity="0" stroke="#948CA9" stroke-opacity=".53" stroke-width=".3" d="M529 305c1.86-.23 2.59-.21 4-1-.94.34-3.31.82-4 1Z"/><path fill="none" fill-opacity="0" stroke="#533D54" stroke-width=".3" d="M635 305s-.74-.25-1 0c-.97 8.03-1.54 17.22-7 24 7.04-5.19 8.55-15.67 8-24Z"/><path fill="none" fill-opacity="0" stroke="#553F55" stroke-width=".3" d="M643 306s-.74-.25-1 0c-1.78 8.2-1.5 17.85-7 25 6.48-5.63 8.57-16.51 8-25Z"/><path fill="none" fill-opacity="0" stroke="#FDFBFA" stroke-width=".3" d="M543 326c-1.66 10.63-3.18 21.15-4 32 4.88-2.22 10.72-3.09 15-6 2.76 3.3 6.09 7.07 5 12 .95-4.39 11.98-7.57 17-6s6.77 10.82 10 14c3.73-.09 5.6-4.05 9-5 3.37-7.09-1.86-20.11 2.75-26.25 4.62-6.14 8.76-8.81 13.25-14.75-16.74 8.59-32 20.88-49 29-.63-8.22-.33-15.98-2-24s6.97-12.98 3-21c-.58 2.86-8.41 3.63-11.92 6.08s-7.22 4.37-8.08 9.92Z"/><path fill="none" fill-opacity="0" stroke="#9D98B2" stroke-opacity=".46" stroke-width=".3" d="M667 324c1.12-4.53.82-9.44 0-14 .3 4.39.54 9.63 0 14Z"/><path fill="none" fill-opacity="0" stroke="#D7CEFF" stroke-opacity=".66" stroke-width=".3" d="M748 321c-6.3-1.37-8.08-8.68-13-11-.8 5.81-7.17 8.65-11 12 5.27 1.47 9.2 6.42 12 11 3.11-4.6 7.31-8.93 12-12Z"/><path fill="none" fill-opacity="0" stroke="#CFC6F5" stroke-opacity=".19" stroke-width=".3" d="M273 315c-3.25.22-6.75.18-10 0 3.4.55 6.53.62 10 0Z"/><path fill="none" fill-opacity="0" stroke="#AFAAC0" stroke-opacity=".35" stroke-width=".3" d="M514 320c.21-1.01 1.53-3.67 2-5-.91 1.87-1.7 2.56-2 5Z"/><path fill="none" fill-opacity="0" stroke="#FBFBFF" stroke-width=".3" d="M395 322c.24-7.43-14.51-8.23-14 0 4.74-2.34 9.11-1.8 14 0ZM418 322c.51-8.26-14.26-7.39-14 0 4.93-1.78 9.29-2.36 14 0Z"/><path fill="none" fill-opacity="0" stroke="#EC773F" stroke-width=".3" d="M516 332c-.21 5.83-10.98 10.54-13.08 16.92-2.09 6.39-6.36 13.68-9.15 19.85s-6.36 13.83-9.46 19.54c-3.11 5.7-6.01 14.78-9.53 19.47S470.31 425.06 465 427c5.91 1.6 14.04 2.87 20.02 4.98 5.99 2.1 15.82.82 20.98 4.02 4.2 2.6 1.51 10.28 2 15s0 12.05 0 17v1c1.75.93 3.42 1.83 5 3-.72-7.21 2.46-15.96-4-21 7.23 4.87 2.77-8.68 4-13-2.7-10.41-7.85-20.15-9-31 9.56 20.02 14.04 44.3 10 67v23c0 5.28-1.09 12.95 0 18s-2.7 14.86 0 19c13.98 2.32 29.64 8.55 44 8-3.81-8.59.48-20.67-2-30-2.47-9.33-1.25-20.3-2.98-30.02-1.72-9.73-.46-21.16-2.02-30.98s-1.91-20.12-2.99-30.01 2.5-19.7 3.99-28.99 4.82-17.64 6-27c-4.5 27.84-10.99 55.12-6 85s3.01 62.06 8 92c20.12 7.01 42.51 7.37 63.67 12.33 21.16 4.95 43.83 7.6 65.33 11.67-5.22-5.82-1.54-17.59-4.99-25.01-3.46-7.42-1.52-18.5-4.34-26.66s-.34-16.27 2.26-24.4c2.59-8.14 3.64-17.29 5.07-25.93s3.63-16.97 3.93-26.07c.29-9.1.54-21.84.07-30.93s-1.66-18.35-3-26c-1.69-9.66-7.14-15.51-10.08-24.92-2.94-9.42-11.08-11.99-17.92-17.08-5.5.39-9.71-5.53-15-6-1.29 7.97-8.66 15.53-11.75 23.25-3.08 7.73-11.6 14.96-7.03 23.53 4.58 8.57 2.83 18.3 7.78 26.22 1.25-9.23 12.44-18.01 16-26-3.96 9.4-10.44 17.76-15 27 .72 7.73 1.97 18.85 8 25-3.24 6.39 2.7 16.55 3.69 24.31 1 7.75 4.06 15.65 10.01 20.99s8.57 11.94 13.3 17.7c2.21 2.69 5.87 4.44 7 8-3.7.67-6.6-1.44-10-2-9.54 16.58-38.45 42.01-57.75 23.75S591.81 478.83 590 453s2.57-60.15 5-86c-3.4.95-5.27 4.91-9 5-3.23-3.18-4.98-12.43-10-14s-16.05 1.61-17 6c1.09-4.93-2.24-8.7-5-12-4.28 2.91-10.12 3.78-15 6 .82-10.85 2.34-21.37 4-32-6.68-1.18-22.85 10.51-27 6m-12 62c.36 3.97-.27 8.02 0 12-2.19-3.09-.43-8.16-1-12 .97-9.95 7.87-18.72 14-26-4.1 8.66-11.24 16.52-13 26m70-14c5.02 2.3.03 10.73-4.67 7.67s-.22-9.91 4.67-7.67m-94 47c-6.87-1.09-1.13-6.88 0 0m89-4c4.68 1.86 1.39 10.44-3.67 7.67s-.23-9.22 3.67-7.67m1 44c3.8 2.49-.94 10.63-5.22 7.22s1.1-9.91 5.22-7.22m2 43c4.63 1.99 1.41 10.48-3.67 7.67s-.75-9.57 3.67-7.67Z"/><path fill="none" fill-opacity="0" stroke="#FBFAFF" stroke-width=".3" d="M409 333c-6.18 1.26-12.82 1.27-19 0 3.94 7.53 15.04 7.59 19 0Z"/><path fill="none" fill-opacity="0" stroke="#A8A0BC" stroke-opacity=".4" stroke-width=".3" d="M660 338c1.65-1.2 1.98-2.23 3-4-.97 1.35-2.47 2.04-3 4Z"/><path fill="none" fill-opacity="0" stroke="#D7CDFF" stroke-opacity=".67" stroke-width=".3" d="M201 339c-3.92 3.77-7.62 8.67-12 12 5.68 1.76 8.32 7.08 12 11 1.76-5.68 7.08-8.32 11-12-5.07-2.04-8.61-6.14-11-11Z"/><path fill="none" fill-opacity="0" stroke="#FADDCF" stroke-width=".3" d="M558 542c.5-.02 1.55-.16 2 0-4.99-29.94-3.01-62.12-8-92s1.5-57.16 6-85c-1.18 9.36-4.51 17.71-6 27s-5.07 19.1-3.99 28.99 1.43 20.19 2.99 30.01.3 21.25 2.02 30.98c1.73 9.72.51 20.69 2.98 30.02 2.48 9.33-1.81 21.41 2 30Z"/><path fill="none" fill-opacity="0" stroke="#FADACB" stroke-width=".3" d="M503 394c0-.04 1 0 1 0 1.76-9.48 8.9-17.34 13-26-6.13 7.28-13.03 16.05-14 26Z"/><path fill="none" fill-opacity="0" stroke="#947FE5" stroke-width=".3" d="M238 380c-2.78 1.42-5.33 6.29-8 8 20.01 8.69 43.86 8.41 65.22 14.78 21.37 6.37 45.09 8.39 66.85 14.15 21.77 5.76 44.89 8.86 66.94 14.06 22.04 5.21 44.59 9.93 66.99 14.01v182c2.08-.07 4.92-2.32 7 0-2.81 5.03-8.94 6.45-12 11 .21.04.65.89 1 1 3.65-1.09 7.17-5.95 10.7-8.3s10.81-3.45 14.52-.92c3.72 2.53 15.51-.38 15.78 4.22 1.22-.91 2-2.09 3-3-8.46 1.63-19.49-4.43-27-6 7.45-1.74 10.3-11.95 18.08-12.92 7.78-.96 18.58 6.08 26.92 4.92.25-.25.74-.88 1-1-1.51-2.71-10.08-.96-13.07-2.93-3-1.96-10.35-.06-12.93-3.07 5.34-4.34 11.51-7.88 16-13 9.41 1.32 18.41 4.31 28 5 8.99 5.45-5.29 18.31-11.75 22.25-6.47 3.94-14.57 13.29-21.95 17.05-7.37 3.76-13.31 16.22-22.31 16.69s-21.68-7.68-31.01-7.97c-9.34-.28-21.99-8.66-31.05-7.95-9.06.72-21.2 3.71-27.18 11.68-5.97 7.97 7.33 16 14.5 21 7.16 5 8.54 20.58 2.45 27.95-6.1 7.36-10.47 14.74-17.95 21.05S412.23 735.03 405 741c15.73 4.4 32.28 9.9 48.01 13.99s31.69 11.28 47.21 14.79c15.53 3.5 32.88 11.65 47.85 14.15s24.36-16.88 36.18-24.68c11.82-7.81 21.69-20.02 33-29 11.3-8.99 21.76-19.69 33-29s22.29-20.07 33.5-29.5c11.22-9.43 21.75-19.62 33-29 11.24-9.39 21.68-19.66 33-29S771.81 593.61 783 584c-3.71-4.01-13.41-1.8-19.01-3.99s-14.1-1.81-20.21-3.79c-6.12-1.98-14.35-1.95-20.78-3.22-.11-1 .47-2.73-1-3-.64 4.05-11.91.24-16 0s-12.99-3.24-17-4c-21.5-4.07-44.17-6.72-65.33-11.67-21.16-4.96-43.55-5.32-63.67-12.33-.45-.16-1.5-.02-2 0-14.36.55-30.02-5.68-44-8-11.67-1.93-7-21-7-32v-34c0-4.51.76-11.76 0-16s2.34-13.09-1-16c-5.16-3.2-14.99-1.92-20.98-4.02-5.98-2.11-14.11-3.38-20.02-4.98-12.45-3.37-25.53-4.83-37.99-8.01-12.47-3.18-25.53-5.06-37.99-8.01-12.45-2.95-25.54-5.45-37.95-8.05-12.4-2.61-25.7-6.12-38-8-12.29-1.88-25.82-7.68-37.85-8.15S249.11 375.82 238 380m487 219c3.5 4.81-1.09 10.23-7.25 14.75-6.15 4.53-9.55 8.42-15 13-5.44 4.58-9.97 8.2-15 13s-10 8.28-15 13-9.54 8.88-14.98 13.02-8.59 9.66-14.52 13.48c-5.94 3.82-15.19-1.06-21.92-2.58s-15.05-4.17-22-6c-6.95-1.82-15.12-3.89-22.01-5.99-6.89-2.11-19.55-1.99-15.32-11.68 3.14-7.19 12.83-10.59 18.75-16.25 5.91-5.67 13.73-10.11 20-16 6.28-5.89 14.03-9.19 20.5-15.5 6.46-6.32 13.38-8.81 20-16 6.61-7.19 17.75-6.22 26.76-3.26s21.48 2.97 30.06 5.94c8.58 2.96 22.34.77 27.12 6.32M518 591c-2.07 3.58-7.09 7.05-11 9v-10c3.94-.72 7.1 1.49 11 1m25 5c-2.52 5.13-7.24 5.03-10.7 9.3s-9.16 4.89-13.97 3.37-13.75-1.44-9.57-6.92c4.17-5.47 7.94-4.11 11.24-9.75 7.74.99 15.07 3.63 23 4m-19 16c-7.87 4.03-13.22 13.93-23 13 .51-2.18 3.6-4.55 6-5v-12c5.47 1.71 12.04 1.73 17 4Z"/><path fill="none" fill-opacity="0" stroke="#AB9DEC" stroke-opacity=".44" stroke-width=".3" d="M230 386c-.49.59-.65 1.36-1 2 .26-.25 1 0 1 0 2.67-1.71 5.22-6.58 8-8-2.2.83-6.47 4.16-8 6Z"/><path fill="none" fill-opacity="0" stroke="#FDF5F1" stroke-width=".3" d="M574 380c-4.89-2.24-9.37 4.61-4.67 7.67s9.69-5.37 4.67-7.67Z"/><path fill="none" fill-opacity="0" stroke="#FADDCE" stroke-width=".3" d="M634 406c.2.32 1.01.87 1 1 4.56-9.24 11.04-17.6 15-27-3.56 7.99-14.75 16.77-16 26Z"/><path fill="none" fill-opacity="0" stroke="#584699" stroke-opacity=".99" stroke-width=".3" d="M689 566c4.01.76 12.91 3.76 17 4s15.36 4.05 16 0c-.08-.49 0-1.5 0-2v-4c-1.3-5.93-1.05-13.15 0-19 1.34-19.65 8.07-39.92 12.68-58.32 4.61-18.41 16.6-33.71 17.32-52.68.13-3.29.18-6.72 0-10-.28-5.22-1.88-9.81-5-14-3.06-3.51-7.55-7.99-11-11-4.45-3.31-9.07-5.4-13.93-8.07-4.85-2.67-11.32-3-16.05-5.95-4.72-2.96-13.84-.87-18.02-3.98 1.34 7.65 2.53 16.91 3 26s.22 21.83-.07 30.93c-.3 9.1-2.5 17.43-3.93 26.07s-2.48 17.79-5.07 25.93c-2.6 8.13-5.08 16.24-2.26 24.4s.88 19.24 4.34 26.66c3.45 7.42-.23 19.19 4.99 25.01m49-150c-31.43 43.32-37.59 99.58-32 153-6.19-26.02-3.09-61.46 1.99-87.01 5.08-25.54 13.59-46.27 30.01-65.99Z"/><path fill="none" fill-opacity="0" stroke="#D8D8F1" stroke-opacity=".08" stroke-width=".3" d="M227 546c.26-.25 1 0 1 0 0-12.95-.32-26.07 0-39s-.82-27.24 0-40-1.87-27.8 0-40-4.63-28.79 1-39c.35-.64.51-1.41 1-2-8.44 7.73-1.27 26.22-3 38s.57 28.28 0 41-.2 27.98 0 41-1.17 27 0 40Z"/><path fill="none" fill-opacity="0" stroke="#261D42" stroke-width=".3" d="M228 546v24c13.84 3.57 27.84 6.56 42 9 .99.26 1.98.71 3 1 2.87.82 6.02 1.54 9 2 1.58.24 2.9.7 4 1 5.81 1.58 20.22 6.7 26 5 1-3.08 3.98-4.18-1.03-5.97-5-1.8-9.22 2.16-9.94-4.06-.73-6.22-.41-5.77-.03-13.97s-.69-18.6 0-27-1.4-19.9 0-28-3.5-20.7 1-27c4.95-6.93 18.28.31 26 1 7.73.69 19.43 4.98 28.01 5.99 8.58 1.02 19.04 5.34 27.99 6.01v102c-1.99-.28-3.78-1.48-6-1-.49-.06-1 0-1 0-3.97-1.27-16.5-1.45-16.97-6.03-.47-4.57 5.17-15.21.97-19.97-9.01 29.87-19.51 59.25-29 89 7.1-5.02 12.37-12.14 14-20 4.12-13.59 7.05-27.61 12-41 7.57 1.99 15.25 3.58 23 5 7.38 1.35 14.62 3.56 22 5 1.06.21 2.38.86 3 1 7.26 1.62 14.85 1.84 22 4 .35.11.79.96 1 1 7.67 1.27 15.48 2.02 23 4 .73.19 1.27.75 2 1 6.96 2.35 14.8 2.37 22 4 .95.22 2.01.72 3 1 5.41 1.5 11.16 3.2 17 3V445c-22.4-4.08-44.95-8.8-66.99-14.01-22.05-5.2-45.17-8.3-66.94-14.06-21.76-5.76-45.48-7.78-66.85-14.15-21.36-6.37-45.21-6.09-65.22-14.78 0 0-.74-.25-1 0-5.63 10.21.87 26.8-1 39s.82 27.24 0 40 .32 27.07 0 40 0 26.05 0 39Z"/><path fill="none" fill-opacity="0" stroke="#FEFBFA" stroke-width=".3" d="M504 394s-1-.04-1 0c.57 3.84-1.19 8.91 1 12-.27-3.98.36-8.03 0-12Z"/><path fill="none" fill-opacity="0" stroke="#A79DCF" stroke-opacity=".44" stroke-width=".3" d="M747 410c-3.16-4.25-6.67-7.78-11-11 3.45 3.01 7.94 7.49 11 11Z"/><path fill="none" fill-opacity="0" stroke="#FADBCB" stroke-width=".3" d="M513 438c2.74 10.55 1 24.56 1 36 4.04-22.7-.44-46.98-10-67 1.15 10.85 6.3 20.59 9 31Z"/><path fill="none" fill-opacity="0" stroke="#302555" stroke-width=".3" d="M738 416c-16.42 19.72-24.93 40.45-30.01 65.99-5.08 25.55-8.18 60.99-1.99 87.01-5.59-53.42.57-109.68 32-153Z"/><path fill="none" fill-opacity="0" stroke="#F8C5AC" stroke-width=".3" d="M480 427c-1.13-6.88-6.87-1.09 0 0Z"/><path fill="none" fill-opacity="0" stroke="#FEFBFA" stroke-width=".3" d="M569 423c-3.9-1.55-8.73 4.9-3.67 7.67s8.35-5.81 3.67-7.67Z"/><path fill="none" fill-opacity="0" stroke="#C2BAE1" stroke-opacity=".24" stroke-width=".3" d="M752 434c.48-3.34.56-6.58 0-10 .18 3.28.13 6.71 0 10Z"/><path fill="none" fill-opacity="0" stroke="#C87981" stroke-width=".3" d="M507 468c0-.04 1 0 1 0 0-4.95.49-12.28 0-17s2.2-12.4-2-15c3.34 2.91.24 11.76 1 16s0 11.49 0 16Z"/><path fill="none" fill-opacity="0" stroke="#F5AD90" stroke-width=".3" d="M508 469c0 10.3 1.47 21.82 0 32 1.34-.63 5.4-2.37 6-4v-23c0-11.44 1.74-25.45-1-36-1.23 4.32 3.23 17.87-4 13 6.46 5.04 3.28 13.79 4 21-1.58-1.17-3.25-2.07-5-3Z"/><path fill="none" fill-opacity="0" stroke="#D6CCFE" stroke-opacity=".95" stroke-width=".3" d="M106 557c1.89 6.24 5.45 14.26 6.78 21.22 1.32 6.97 6.32 13.36 8.14 19.86 1.83 6.49 11.06 11.46 11.08 17.92 10.36-5.07 18.32-14.75 28.23-20.77S179.74 580.8 189 574c-3.79-6.07-1.08-16.68-3.33-23.67S183.25 534.39 182 527s-5.17-15.95-3-23c3.72 22.97 8.6 45.67 11 69 7.03-4.63 15.17-9.04 21-15-3.66-2.04-.03-12.16-2-16s-1.98-10.92-4-15c5.37 7.31 5.43 20.11 7 30 2.26-1.06 4.04-2.56 6-4-4.18-3.38-1.39-14.93-3.99-20.01-2.61-5.08-2.4-13.78-4.94-19.06-2.53-5.29-1.94-13.6-8.07-15.93-1.26 5.65-3.01 10.97-3 17s-.65 14.21-1 20 1.78 16.31-2 17c-1.85-15.46-4.99-32.28-9.02-46.98-4.04-14.7-5.51-29.73-13.98-42.02-6.91 23.67-.24 51.33-2 75-8.58-26.97-17.42-58.7-40-77-6.14 28.73 7.59 58.64 9 86-1.79-10.26-9.97-15.69-14.08-24.92s-17.59-12.49-20.14-.3-.76 23.53 1.22 35.22m67 28c-9.2-33.27-19.19-66.27-33-98 15.19 29.17 26.69 65.79 33 98m-50-52c-1.72 26.79 6.44 52.03 22 73-17.47-18.17-25.65-47.53-22-73Z"/><path fill="none" fill-opacity="0" stroke="#FEF9F7" stroke-width=".3" d="M570 467c-4.12-2.69-9.5 3.81-5.22 7.22s9.02-4.73 5.22-7.22Z"/><path fill="none" fill-opacity="0" stroke="#CC98B2" stroke-width=".3" d="M507 502c.05-.23.95-.65 1-1 1.47-10.18 0-21.7 0-32v-1s-1-.04-1 0z"/><path fill="none" fill-opacity="0" stroke="#917CE2" stroke-width=".3" d="M302 482c3.89-2.55 12.12 3.86 17.07 3.93 4.96.07 13.29 2.02 18.6 3.4s12.58 2.16 18 4c5.42 1.83 13.15 1.28 18.33 3.67 7.97 3.69.9 22.13 3 31s-1.97 24.3 0 34-3.57 25 1 34c2.22-.48 4.01.72 6 1V495c-8.95-.67-19.41-4.99-27.99-6.01-8.58-1.01-20.28-5.3-28.01-5.99-7.72-.69-21.05-7.93-26-1Z"/><path fill="none" fill-opacity="0" stroke="#564498" stroke-width=".3" d="M312 588c-4.04 12.42-6.37 28.04-12 41-8.52-2.42-14.32 8.13-20.75 13.25C272.81 647.37 265.64 653 260 659c27.79 8.2 55.2 17.74 83 26 11.28-12.35 24.13-23.21 36-35v10c5.38-11.5-5.9-11.18-12.07-13.93-6.18-2.75-19.23-1.16-20.93-7.07-1.63 7.86-6.9 14.98-14 20 9.49-29.75 19.99-59.13 29-89 4.2 4.76-1.44 15.4-.97 19.97.47 4.58 13 4.76 16.97 6.03-4.54-5.65.54-16.85-1-24s1.15-18.64 0-26 1.52-18.21 0-25 3.72-20.23-2-24c-5.18-2.39-12.91-1.84-18.33-3.67-5.42-1.84-12.69-2.62-18-4s-13.64-3.33-18.6-3.4c-4.95-.07-13.18-6.48-17.07-3.93-4.5 6.3.4 18.9-1 27s.69 19.6 0 28 .38 18.8 0 27-.7 7.75.03 13.97c.72 6.22 4.94 2.26 9.94 4.06 5.01 1.79 2.03 2.89 1.03 5.97Z"/><path fill="none" fill-opacity="0" stroke="#F4F1FF" stroke-width=".3" d="M173 585c-6.31-32.21-17.81-68.83-33-98 13.81 31.73 23.8 64.73 33 98Z"/><path fill="none" fill-opacity="0" stroke="#2F2243" stroke-width=".3" d="M667 501c3.4.56 6.3 2.67 10 2-1.13-3.56-4.79-5.31-7-8 .03 1.49-2.24 4.67-3 6Z"/><path fill="none" fill-opacity="0" stroke="#DBD1FF" stroke-opacity=".09" stroke-width=".3" d="M195 552c3.78-.69 1.65-11.21 2-17s1.01-13.97 1-20 1.74-11.35 3-17c6.13 2.33 5.54 10.64 8.07 15.93 2.54 5.28 2.33 13.98 4.94 19.06 2.6 5.08-.19 16.63 3.99 20.01.3-.22.74-.76 1-1-1.31-7.96-3.08-20.25-6.02-27.98-2.95-7.72-1.74-19.99-8.23-25.77S196.84 512.96 197 520s-1.34 24.58-2 32Z"/><path fill="none" fill-opacity="0" stroke="#6E5BB7" stroke-width=".3" d="M377 596s.51-.06 1 0c-4.57-9 .97-24.3-1-34s2.1-25.13 0-34 4.97-27.31-3-31c5.72 3.77.48 17.21 2 24s-1.15 17.64 0 25-1.54 18.85 0 26-3.54 18.35 1 24Z"/><path fill="none" fill-opacity="0" stroke="#E5E0FC" stroke-width=".3" d="M508 501c-.05.35-.95.77-1 1 0 11-4.67 30.07 7 32-2.7-4.14 1.09-13.95 0-19s0-12.72 0-18c-.6 1.63-4.66 3.37-6 4Z"/><path fill="none" fill-opacity="0" stroke="#F4F1FF" stroke-width=".3" d="M189 574c.3-.22.73-.82 1-1-2.4-23.33-7.28-46.03-11-69-2.17 7.05 1.75 15.61 3 23s1.42 16.34 3.67 23.33-.46 17.6 3.33 23.67Z"/><path fill="none" fill-opacity="0" stroke="#FEFAF8" stroke-width=".3" d="M572 510c-4.42-1.9-8.75 4.86-3.67 7.67s8.3-5.68 3.67-7.67Z"/><path fill="none" fill-opacity="0" stroke="#D5CBFE" stroke-opacity=".97" stroke-width=".3" d="M778 532c-1.31-16.49-24.33 4.74-29.75 9.25-5.41 4.51-7.82 9.89-13 13S727.66 568.16 722 568c0 .5-.08 1.51 0 2 1.47.27.89 2 1 3 6.43 1.27 14.66 1.24 20.78 3.22 6.11 1.98 14.61 1.6 20.21 3.79s15.3-.02 19.01 3.99c9.16 9.91-6.99 22.71-14.25 28.75-7.25 6.05-16.79 14.78-24.5 21.5s-16 15.08-24 22c-8 6.91-16.24 14.64-24.33 21.67-8.1 7.03-15.79 15.14-24.17 21.83S656.19 715.27 648 722c10.18-2.26 23.56-1 34-1 16.61-.77 35.68-4.22 50.93-9.07 15.24-4.86 27.24-10.15 40.82-18.18 13.59-8.03 20.37-16.06 32.5-27.5 12.12-11.45 6.84-35.16 7.75-51.25-2.38 1.04-3.59 3.89-6 5 9.11-14.22 5.54-30.99 6-48s-.34-35.83 0-53c-16.16 12.06-31.16 27.1-45 42 3.79-9.48 8.01-18.66 9-29Z"/><path fill="none" fill-opacity="0" stroke="#DCD2FF" stroke-opacity=".1" stroke-width=".3" d="M722 567v1c5.66.16 8.07-10.64 13.25-13.75s7.59-8.49 13-13c5.42-4.51 28.44-25.74 29.75-9.25 1.67-17.51-22.37 1.33-29.75 7.25S729.92 561.84 722 567Z"/><path fill="none" fill-opacity="0" stroke="#F2F0FE" stroke-width=".3" d="M211 558c.25-.25.74-.88 1-1-1.57-9.89-1.63-22.69-7-30 2.02 4.08 2.03 11.16 4 15s-1.66 13.96 2 16Z"/><path fill="none" fill-opacity="0" stroke="#F4F2FF" stroke-width=".3" d="M123 533c-3.65 25.47 4.53 54.83 22 73-15.56-20.97-23.72-46.21-22-73Z"/><path fill="none" fill-opacity="0" stroke="#AAA0D2" stroke-opacity=".4" stroke-width=".3" d="M722 564c0-6.28-.43-12.73 0-19-1.05 5.85-1.3 13.07 0 19Z"/><path fill="none" fill-opacity="0" stroke="#B7ADEF" stroke-opacity=".35" stroke-width=".3" d="M221 551c1.71-.74 5.84-1.74 7-3v-2s-.74-.25-1 0c-1.69 1.65-4.12 3.49-6 5Z"/><path fill="none" fill-opacity="0" stroke="#937EE5" stroke-width=".3" d="M221 551c-.63.27-1.47.51-2 1-.26.24-.7.78-1 1-1.96 1.44-3.74 2.94-6 4-.26.12-.75.75-1 1-5.83 5.96-13.97 10.37-21 15-.27.18-.7.78-1 1-9.26 6.8-18.86 15.21-28.77 21.23S142.36 610.93 132 616c-.4.2-1 0-1 0-3.28 3.21-8.02 6.27-12 9-8.57 7.92-17.81 15.18-27 22 7.22 2.26 14.39 4.07 21.67 6.33 7.28 2.25 14.01 4.27 21.4 6.6 7.39 2.32 14.79 3.91 22.15 6.85 7.37 2.94 14.35 2.3 21.8 6.2 7.46 3.89 12.09-1.49 16.73-7.23 4.64-5.73 9.79-9.28 14.5-14.5s9.22-9.4 14.5-13.5c5.27-4.11 10.25-8.74 15.95-12.05 5.7-3.32 13.47-9.11 20.3-8.7 6.83.42 15.22-7.75 13.98-14.02-1.25-6.27.48-20.12-4.98-23.98a525 525 0 0 1-42-9v-22c-1.16 1.26-5.29 2.26-7 3Z"/><path fill="none" fill-opacity="0" stroke="#DACFFF" stroke-opacity=".11" stroke-width=".3" d="M131 616s.6.2 1 0c-.02-6.46-9.25-11.43-11.08-17.92-1.82-6.5-6.82-12.89-8.14-19.86-1.33-6.96-4.89-14.98-6.78-21.22 1.85 10.96 5.48 22.5 9.23 32.77S126 606.64 131 616Z"/><path fill="none" fill-opacity="0" stroke="#59489B" stroke-opacity=".99" stroke-width=".3" d="M92 647c-.35-.11-1.06-.71-1-1-1.7.85-3.45 18.54.98 20.02 4.42 1.48 11.52 3.17 17 5 5.47 1.84 11.5 3.24 17.8 5.2 6.3 1.97 8.96 3.05 16.55 5.45s8.3 1.71 17.98 5.02c9.67 3.32 23.89 7.24 33.67 10.33 9.77 3.1 9.51 2.69 17.8 5.2 8.28 2.51 8.59 2.92 17 5 8.4 2.09 7.18 3.26 17.21 5.79 10.04 2.52 24.19 6.81 33.94 10.06 9.74 3.25 10.38 2.51 17.99 5.01 7.62 2.49 10.17 3.51 16.86 5.14s10.99 4.17 17.2 5.8c6.2 1.64 11.13 3.13 17 5 5.87 1.88 11.24 3.04 17 5 5.75 1.97 12.06 3.27 17.8 5.2 5.74 1.94 11.2 3.24 17 5 5.79 1.76 11.72 3.82 17.54 5.46 5.82 1.63 10.89 3.59 16.66 5.34 5.77 1.76 12.21 3.19 17.95 5.05 5.73 1.87 11.01 3.53 16.85 5.15 5.83 1.62 10.9 3.71 17 5s10.83 4.48 17.21 5.79 13.77 1.77 21.01.99 15.41 1.84 23 0 13.48 4.73 21.3-.7c7.82-5.42 16.38-15.19 23.95-21.05 7.57-5.87 4.74-5.26 11.5-10.5s4.53-4.79 12-11S633.43 734.47 641 728c2.3-2.3 4.77-4.17 7-6 8.19-6.73 15.37-15.56 23.75-22.25s16.07-14.8 24.17-21.83c8.09-7.03 16.33-14.76 24.33-21.67 8-6.92 16.29-15.28 24-22s17.25-15.45 24.5-21.5c7.26-6.04 23.41-18.84 14.25-28.75-11.19 9.61-21.93 20.41-33.25 29.75s-21.76 19.61-33 29c-11.25 9.38-21.78 19.57-33 29-11.21 9.43-22.26 20.19-33.5 29.5s-21.7 20.01-33 29c-11.31 8.98-21.18 21.19-33 29-11.82 7.8-21.21 27.18-36.18 24.68s-32.32-10.65-47.85-14.15c-15.52-3.51-31.48-10.7-47.21-14.79S420.73 745.4 405 741c7.23-5.97 14.27-10.94 21.75-17.25s11.85-13.69 17.95-21.05c6.09-7.37 4.71-22.95-2.45-27.95-7.17-5-20.47-13.03-14.5-21 5.98-7.97 18.12-10.96 27.18-11.68 9.06-.71 21.71 7.67 31.05 7.95 9.33.29 22.01 8.44 31.01 7.97s14.94-12.93 22.31-16.69c7.38-3.76 15.48-13.11 21.95-17.05 6.46-3.94 20.74-16.8 11.75-22.25-5.5 4.82-11.4 10.91-18 14-.26.12-.75.75-1 1-5.29 5.41-12.44 8.92-18 14-1 .91-1.78 2.09-3 3-4.74 3.52-10.07 6.74-14 11-8.86-2.5-17.97-4.05-27-6-.35-.11-.79-.96-1-1-7.35-1.22-14.79-2.12-22-4-.99-.26-1.98-.71-3-1-7.15-2.05-14.98-2.42-22-5-.79-.29-1.15-.82-2-1-7.33-1.52-14.75-2.09-22-4-.78-.2-1.19-.79-2-1-6.93-1.82-14.97-3.94-22-5-.98-.15-2.02.15-3 0-2.9-.44-7.36-3.12-10.22-2.78-2.87.34-9.47-3.74-11.78-2.22-1.18 2.52-1.18 5.83-1 9 26.14 5.75 52.71 12.43 78 20-8.93-.41-29.85 12.89-22.69 22.69 7.15 9.81 23.74 14.98 20.69 28.31-3.05 13.34-10.9 21.1-20.25 28.75s-16.27 19.31-27.78 18.27c-11.5-1.04-25.51-9.1-37.64-11.35-12.13-2.24-25.1-8.57-37.4-11.6-12.31-3.02-24.7-7.28-37-11-12.31-3.71-25.6-7.24-37.95-11.05-12.35-3.8-25.24-7.4-36.98-12.02 11.57-10.38 18.12-21.66 31.25-30.75 13.12-9.09 20.87-21.71 38.75-24.25 17.88-2.53 8.69-31.56 5-44-1.1-.3-2.42-.76-4-1 6.66 5.31 2.26 15.39 6.93 23.07 4.66 7.69.21 20.25-8.93 18.93s-13.04 7.12-19.75 10.25-11.15 8.47-16.95 13.05c-5.8 4.59-10.16 9.16-16.05 13.95-5.88 4.8-9.4 8.66-15 15s-14.48 2.87-22.25.75c6.11-9.65 14.23-15.84 22.25-24.75s16.59-12.89 25.5-21.5c8.9-8.62 21.93-8.91 32.94-14.06 11.02-5.14 5.39-28.47 2.31-36.69-1.02-.29-2.01-.74-3-1 5.46 3.86 3.73 17.71 4.98 23.98 1.24 6.27-7.15 14.44-13.98 14.02-6.83-.41-14.6 5.38-20.3 8.7-5.7 3.31-10.68 7.94-15.95 12.05-5.28 4.1-9.79 8.28-14.5 13.5s-9.86 8.77-14.5 14.5c-4.64 5.74-9.27 11.12-16.73 7.23-7.45-3.9-14.43-3.26-21.8-6.2-7.36-2.94-14.76-4.53-22.15-6.85-7.39-2.33-14.12-4.35-21.4-6.6-7.28-2.26-14.45-4.07-21.67-6.33Z"/><path fill="none" fill-opacity="0" stroke="#927EE4" stroke-width=".3" d="M282 582c-2.98-.46-6.13-1.18-9-2 3.08 8.22 8.71 31.55-2.31 36.69-11.01 5.15-24.04 5.44-32.94 14.06-8.91 8.61-17.48 12.59-25.5 21.5S196.11 667.35 190 677c7.77 2.12 16.65 5.59 22.25-.75s9.12-10.2 15-15c5.89-4.79 10.25-9.36 16.05-13.95 5.8-4.58 10.24-9.92 16.95-13.05S270.86 622.68 280 624s13.59-11.24 8.93-18.93c-4.67-7.68-.27-17.76-6.93-23.07Z"/><path fill="none" fill-opacity="0" stroke="#937EE5" stroke-width=".3" d="M371 612c2.01-4.29 7.63-5.28 10-9-7.75-1.42-15.43-3.01-23-5-4.95 13.39-7.88 27.41-12 41 1.7 5.91 14.75 4.32 20.93 7.07 6.17 2.75 17.45 2.43 12.07 13.93-3.27 6.99-13.19 12.81-18.75 18.25s-13.39 16.57-21.47 14.97-19.58-6.36-27.85-9.15c-8.28-2.78-20.74-6.06-28.61-9.39S256.44 670.9 260 659c5.64-6 12.81-11.63 19.25-16.75 6.43-5.12 12.23-15.67 20.75-13.25 5.63-12.96 7.96-28.58 12-41-5.78 1.7-20.19-3.42-26-5 3.69 12.44 12.88 41.47-5 44-17.88 2.54-25.63 15.16-38.75 24.25-13.13 9.09-19.68 20.37-31.25 30.75 11.74 4.62 24.63 8.22 36.98 12.02 12.35 3.81 25.64 7.34 37.95 11.05 12.3 3.72 24.69 7.98 37 11 12.3 3.03 25.27 9.36 37.4 11.6 12.13 2.25 26.14 10.31 37.64 11.35 11.51 1.04 18.43-10.62 27.78-18.27S442.95 705.34 446 692c3.05-13.33-13.54-18.5-20.69-28.31-7.16-9.8 13.76-23.1 22.69-22.69-25.29-7.57-51.86-14.25-78-20-.18-3.17-.18-6.48 1-9Z"/><path fill="none" fill-opacity="0" stroke="#574599" stroke-width=".3" d="M562 653c4.04-2.68 13.85 4.24 19.01 3.99 5.16-.24 12.32 4.34 18.06 4.94 5.75.59 12.59 3.37 18.6 4.4 6.02 1.03 12.08 3.77 18.35 4.65 6.28.87 8.19-2.2 13.73-7.23 5.53-5.04 6-4.6 12.95-11.05 6.94-6.45 17.54-15.13 24.55-21.45s7.61-5.32 12.5-10.5c4.89-5.17 8.98-5.86 12.48-10.52s11-6.3 12.77-11.23c-4.59-6.3-18.35-4.11-26.93-7.07-8.58-2.97-21.05-2.98-30.06-5.94s-20.15-3.93-26.76 3.26c-6.62 7.19-13.54 9.68-20 16-6.47 6.31-14.22 9.61-20.5 15.5-6.27 5.89-14.09 10.33-20 16-5.92 5.66-15.61 9.06-18.75 16.25m92-9c-7.67 1.31-18-1.19-26.01-2.99S609.16 639.19 604 634c16.73 2.97 33.8 5.21 50 10m-12 11c-15.98-2.03-34.93-4.4-50-10 7.95-.83 17.12 2.1 25.22 3.78 8.11 1.68 19.05 1.53 24.78 6.22Z"/><path fill="none" fill-opacity="0" stroke="#F3F1FC" stroke-width=".3" d="M518 591c-3.9.49-7.06-1.72-11-1v10c3.91-1.95 8.93-5.42 11-9Z"/><path fill="none" fill-opacity="0" stroke="#FBFBFE" stroke-width=".3" d="M543 596c-7.93-.37-15.26-3.01-23-4-3.3 5.64-7.07 4.28-11.24 9.75-4.18 5.48 4.76 5.4 9.57 6.92s10.51.9 13.97-3.37 8.18-4.17 10.7-9.3Z"/><path fill="none" fill-opacity="0" stroke="#FBFBFD" stroke-width=".3" d="M555 616c6.6-3.09 12.5-9.18 18-14-9.59-.69-18.59-3.68-28-5-4.49 5.12-10.66 8.66-16 13 2.58 3.01 9.93 1.11 12.93 3.07 2.99 1.97 11.56.22 13.07 2.93Z"/><path fill="none" fill-opacity="0" stroke="#F9F8FC" stroke-width=".3" d="M725 599c-1.77 4.93-9.27 6.57-12.77 11.23s-7.59 5.35-12.48 10.52c-4.89 5.18-5.49 4.18-12.5 10.5s-17.61 15-24.55 21.45c-6.95 6.45-7.42 6.01-12.95 11.05-5.54 5.03-7.45 8.1-13.73 7.23-6.27-.88-12.33-3.62-18.35-4.65-6.01-1.03-12.85-3.81-18.6-4.4-5.74-.6-12.9-5.18-18.06-4.94-5.16.25-14.97-6.67-19.01-3.99-4.23 9.69 8.43 9.57 15.32 11.68 6.89 2.1 15.06 4.17 22.01 5.99 6.95 1.83 15.27 4.48 22 6s15.98 6.4 21.92 2.58c5.93-3.82 9.08-9.34 14.52-13.48s9.98-8.3 14.98-13.02 9.97-8.2 15-13 9.56-8.42 15-13c5.45-4.58 8.85-8.47 15-13 6.16-4.52 10.75-9.94 7.25-14.75Z"/><path fill="none" fill-opacity="0" stroke="#F7F7FA" stroke-width=".3" d="M371 612c2.31-1.52 8.91 2.56 11.78 2.22 2.86-.34 7.32 2.34 10.22 2.78 2.73-1.92 6.92-8.24 10-9-7.38-1.44-14.62-3.65-22-5-2.37 3.72-7.99 4.71-10 9Z"/><path fill="none" fill-opacity="0" stroke="#A190E6" stroke-width=".3" d="M393 617c.98.15 2.02-.15 3 0 3.51-1.56 5.62-7.16 10-8-.62-.14-1.94-.79-3-1-3.08.76-7.27 7.08-10 9Z"/><path fill="none" fill-opacity="0" stroke="#F7F6FD" stroke-width=".3" d="M524 612c-4.96-2.27-11.53-2.29-17-4v12c-2.4.45-5.49 2.82-6 5 9.78.93 15.13-8.97 23-13Z"/><path fill="none" fill-opacity="0" stroke="#F7F6FA" stroke-width=".3" d="M396 617c7.03 1.06 15.07 3.18 22 5-.35-1.53 8.87-8.42 10-9-7.15-2.16-14.74-2.38-22-4-4.38.84-6.49 6.44-10 8Z"/><path fill="none" fill-opacity="0" stroke="#FBFBFD" stroke-width=".3" d="M536 631c5.56-5.08 12.71-8.59 18-14-8.34 1.16-19.14-5.88-26.92-4.92-7.78.97-10.63 11.18-18.08 12.92 7.51 1.57 18.54 7.63 27 6Z"/><path fill="none" fill-opacity="0" stroke="#A190E6" stroke-width=".3" d="M418 622c.81.21 1.22.8 2 1 .95-.24 8.82-8.08 9-9-.21-.04-.65-.89-1-1-1.13.58-10.35 7.47-10 9Z"/><path fill="none" fill-opacity="0" stroke="#F9F8FB" stroke-width=".3" d="M420 623c7.25 1.91 14.67 2.48 22 4-.02-.33 9.43-8.85 10-9-7.52-1.98-15.33-2.73-23-4-.18.92-8.05 8.76-9 9Z"/><path fill="none" fill-opacity="0" stroke="#A292E7" stroke-width=".3" d="M442 627c.85.18 1.21.71 2 1 .87-.15 10.21-8.1 10-9-.73-.25-1.27-.81-2-1-.57.15-10.02 8.67-10 9Z"/><path fill="none" fill-opacity="0" stroke="#F8F8FB" stroke-width=".3" d="M444 628c7.02 2.58 14.85 2.95 22 5 3.17-1.07 7.79-9.37 10-10-7.2-1.63-15.04-1.65-22-4 .21.9-9.13 8.85-10 9Z"/><path fill="none" fill-opacity="0" stroke="#A191E4" stroke-width=".3" d="M466 633c1.02.29 2.01.74 3 1 2.28-.65 6.64-9.29 10-10-.99-.28-2.05-.78-3-1-2.21.63-6.83 8.93-10 10Z"/><path fill="none" fill-opacity="0" stroke="#F8F7FB" stroke-width=".3" d="M469 634c7.21 1.88 14.65 2.78 22 4 3.06-4.55 9.19-5.97 12-11-2.08-2.32-4.92-.07-7 0-5.84.2-11.59-1.5-17-3-3.36.71-7.72 9.35-10 10Z"/><path fill="none" fill-opacity="0" stroke="#A696EA" stroke-opacity=".47" stroke-width=".3" d="M91 646c-.06.29.65.89 1 1 9.19-6.82 18.43-14.08 27-22-4.07 2.79-11.45 7.03-14.75 10.25S91.81 641.84 91 646Z"/><path fill="none" fill-opacity="0" stroke="#FAFAFC" stroke-width=".3" d="M492 639c9.03 1.95 18.14 3.5 27 6 3.93-4.26 9.26-7.48 14-11-.27-4.6-12.06-1.69-15.78-4.22-3.71-2.53-10.99-1.43-14.52.92s-7.05 7.21-10.7 8.3Z"/><path fill="none" fill-opacity="0" stroke="#E6E3F0" stroke-width=".3" d="M654 644c-16.2-4.79-33.27-7.03-50-10 5.16 5.19 15.98 5.21 23.99 7.01s18.34 4.3 26.01 2.99ZM642 655c-5.73-4.69-16.67-4.54-24.78-6.22-8.1-1.68-17.27-4.61-25.22-3.78 15.07 5.6 34.02 7.97 50 10Z"/><path fill="none" fill-opacity="0" stroke="#271E45" stroke-width=".3" d="M260 659c-3.56 11.9 14.45 12.35 22.32 15.68s20.33 6.61 28.61 9.39c8.27 2.79 19.77 7.55 27.85 9.15s15.91-9.53 21.47-14.97S375.73 666.99 379 660v-10c-11.87 11.79-24.72 22.65-36 35-27.8-8.26-55.21-17.8-83-26Z"/><path fill="none" fill-opacity="0" stroke="#D4C9F8" stroke-opacity=".15" stroke-width=".3" d="M648 722c-2.23 1.83-4.7 3.7-7 6 9.57-8.18 28.94-5.83 41-7-10.44 0-23.82-1.26-34 1Z"/><path fill="none" fill-opacity="0" stroke="None" d="M0 900h900V0H0v900m137-693c3.1-4.4 6.36-12.56 11.25-15.75S158.73 179.03 165 180c-5.42-6.93-1.23-16.62-5-24-3.17-6.2-4.79-14.22 4-17 .53-16.78 23.58-16.17 34-9 2.59 1.72 5.4 4.39 7 7 3.14 5.13 3.38 11.59 1 17-.29.65-.67 1.4-1 2-1.17 5.48.24 11.98-1 17-.05 2.32-1.95 3.99-2 6 .12.24.88 1.92 1 2 4.26 2.69 12.86 5.08 15.75 10.25 2.9 5.17 11.42 10.33 10.25 16.75 29.7-34.41 10.47-94.47-37-99 11.12.94 27.11-5.91 37.25 1.75 10.13 7.67 23.36 5.17 36.75 5.25s28.23.02 42 0 27.99.12 42 0 27.75.31 42 0 27.35.7 42 0 26.52 1.56 42 0 12.76 16.78 12 29 1.27 30.41 0 42 5.99 32.71-8 34c-13.99 1.28-28.05-.61-42 0s-28.12-.34-42 0-28.27-.31-42 0-28.61-.48-42 0-28.28-.99-41 0-29-3.57-38.75 3.25-16.11 11.52-27.27 14.73c-11.17 3.2-24.86 4.52-36 2.04-11.14-2.47-20.45-6.18-29.23-12.77-8.77-6.6-14.49-12.9-20.05-21.95-5.57-9.04-9.63-20.3-9.7-31.3-.33-4.46-.33-8.61 0-12 0-17.87 7.42-28.42 17.25-42.75S157.56 105.7 174 109c-44.93 3.78-67.86 65.47-37 98m446-19c7.86.3 14.27 3.23 21 6 13.26 5.46 23.53 19.89 28 33 .62 1.3 1.45 2.43 2 4 1.84 5.3 2.88 10.18 3 16 .38 3.14 1.39 5.73 0 9 0 .5-.17 1.57 0 2 1.98 4.91 4.74 7.66 6 13 .35 1.49 1.78 3.85 1 6 1.85.97 4.24 1.79 5 4 .36.22 1 0 1 0 3.37 1.65 6.85 6.11 9 9 4.18 5.62 7.52 13.01 8 20 .82 4.56 1.12 9.47 0 14-.93 3.74-2.05 6.63-4 10-1.02 1.77-1.35 2.8-3 4-.13.47 0 1 0 1 6.84 5.09 14.98 7.66 17.92 17.08 2.94 9.41 8.39 15.26 10.08 24.92 4.18 3.11 13.3 1.02 18.02 3.98 4.73 2.95 11.2 3.28 16.05 5.95 4.86 2.67 9.48 4.76 13.93 8.07 4.33 3.22 7.84 6.75 11 11 3.12 4.19 4.72 8.78 5 14 .56 3.42.48 6.66 0 10-.72 18.97-12.71 34.27-17.32 52.68-4.61 18.4-11.34 38.67-12.68 58.32-.43 6.27 0 12.72 0 19v3c7.92-5.16 18.87-21.83 26.25-27.75S779.67 514.49 778 532c-.99 10.34-5.21 19.52-9 29 13.84-14.9 28.84-29.94 45-42-.34 17.17.46 35.99 0 53s3.11 33.78-6 48c2.41-1.11 3.62-3.96 6-5-.91 16.09 4.37 39.8-7.75 51.25-12.13 11.44-18.91 19.47-32.5 27.5-13.58 8.03-25.58 13.32-40.82 18.18-15.25 4.85-34.32 8.3-50.93 9.07-12.06 1.17-31.43-1.18-41 7-7.57 6.47-15.78 14.54-23.25 20.75s-5.24 5.76-12 11-3.93 4.63-11.5 10.5c-7.57 5.86-16.13 15.63-23.95 21.05-7.82 5.43-13.71-1.14-21.3.7s-15.76-.78-23 0-14.63.32-21.01-.99-11.11-4.5-17.21-5.79-11.17-3.38-17-5c-5.84-1.62-11.12-3.28-16.85-5.15-5.74-1.86-12.18-3.29-17.95-5.05-5.77-1.75-10.84-3.71-16.66-5.34-5.82-1.64-11.75-3.7-17.54-5.46-5.8-1.76-11.26-3.06-17-5-5.74-1.93-12.05-3.23-17.8-5.2-5.76-1.96-11.13-3.12-17-5-5.87-1.87-10.8-3.36-17-5-6.21-1.63-10.51-4.17-17.2-5.8s-9.24-2.65-16.86-5.14c-7.61-2.5-8.25-1.76-17.99-5.01-9.75-3.25-23.9-7.54-33.94-10.06-10.03-2.53-8.81-3.7-17.21-5.79-8.41-2.08-8.72-2.49-17-5-8.29-2.51-8.03-2.1-17.8-5.2-9.78-3.09-24-7.01-33.67-10.33-9.68-3.31-10.39-2.62-17.98-5.02s-10.25-3.48-16.55-5.45c-6.3-1.96-12.33-3.36-17.8-5.2-5.48-1.83-12.58-3.52-17-5-4.43-1.48-2.68-19.17-.98-20.02.81-4.16 9.95-7.53 13.25-10.75S114.93 627.79 119 625c3.98-2.73 8.72-5.79 12-9-5-9.36-12.02-15.96-15.77-26.23S107.85 567.96 106 557c-1.98-11.69-3.77-23.03-1.22-35.22s16.03-8.93 20.14.3S137.21 536.74 139 547c-1.41-27.36-15.14-57.27-9-86 22.58 18.3 31.42 50.03 40 77 1.76-23.67-4.91-51.33 2-75 8.47 12.29 9.94 27.32 13.98 42.02 4.03 14.7 7.17 31.52 9.02 46.98.66-7.42 2.16-24.96 2-32s1.26-27.53 7.75-21.75 5.28 18.05 8.23 25.77c2.94 7.73 4.71 20.02 6.02 27.98.53-.49 1.37-.73 2-1 1.88-1.51 4.31-3.35 6-5-1.17-13 .2-26.98 0-40s-.57-28.28 0-41-1.73-29.22 0-41-5.44-30.27 3-38c1.53-1.84 5.8-5.17 8-6 11.11-4.18 25.19 6.31 37.22 6.78s25.56 6.27 37.85 8.15c12.3 1.88 25.6 5.39 38 8 12.41 2.6 25.5 5.1 37.95 8.05 12.46 2.95 25.52 4.83 37.99 8.01 12.46 3.18 25.54 4.64 37.99 8.01 5.31-1.94 6.26-14.53 9.78-19.22s6.42-13.77 9.53-19.47c3.1-5.71 6.67-13.37 9.46-19.54s7.06-13.46 9.15-19.85c2.1-6.38 12.87-11.09 13.08-16.92.13-3.53-2.55-7.56-2-12 .3-2.44 1.09-3.13 2-5 2.98-6.11 5.87-9.11 13-10 .69-.18 3.06-.66 4-1 2.6-1.47 3.14-3.04 3-6-1.74-.51-5.79-6.37-7-8-5.68-7.64-6.52-19.11-1-27 2.5-11.49-.59-25.86 1-37 .78-20.48 21.28-37.61 41-38 4.23-.51 8.81-.6 13 0m176 23c1.66 1.05 1.36 1.3 2 3 2.03 5.36 1.03 12.79 1 19s1.04 14.61-1 20c-.63 1.66-.39 1.98-2 3-6.38 4.04-17.46-.77-25 1s-17.94-2.57-25 1c-3.84 2.77-8.38 11.97-13 13-3.21.72-2.35-10.07-2-14-3.77 0-13.7 1.98-15-3-.12-.47 0-1 0-1-2.81-3.8-1.1-13.94-1-19s-1.87-16.12 1-20v-1c1.53-5.87 12.74-2.42 18-3s15-.01 21 0 14.93-.61 21 0 15.15-2.07 20 1m-484 43c20.53 5.09 31.62 29.02 19 48-2.18 3.28-5.78 6.86-9 9-3.6 2.4-7.7 3.71-12 4-3.47.62-6.6.55-10 0-12.01-.65-21.51-9.96-25-21-1.52-4.82-1.78-9.17-1-14 2.18-13.42 10.4-23.18 24-26 4.55-.94 9.5-1.12 14 0m126 47c32.54 1.36 30.52 54.19-3 52s-29.67-53.37 3-52m347 20c-4.69 3.07-8.89 7.4-12 12-2.8-4.58-6.73-9.53-12-11 3.83-3.35 10.2-6.19 11-12 4.92 2.32 6.7 9.63 13 11m-547 18c2.39 4.86 5.93 8.96 11 11-3.92 3.68-9.24 6.32-11 12-3.68-3.92-6.32-9.24-12-11 4.38-3.33 8.08-8.23 12-12Z"/><path fill="#E8D63C" fill-opacity=".99" stroke="None" d="M110 163v11c.07 12 4.13 23.26 9.7 32.3 5.56 9.05 11.28 15.35 20.05 21.95 8.78 6.59 18.09 10.3 29.23 12.77 11.14 2.48 24.83 1.16 36-2.04 11.16-3.21 17.52-7.91 27.27-14.73s26.03-2.26 38.75-3.25 27.61.48 41 0 28.27.31 42 0 28.12.34 42 0 28.05.61 42 0 28.01 1.28 42 0c13.99-1.29 6.73-22.41 8-34s-.76-29.78 0-42 3.48-30.56-12-29-27.35-.7-42 0-27.75-.31-42 0-27.99-.12-42 0-28.23-.02-42 0-28.61.08-42 0-26.62 2.42-36.75-5.25c-10.14-7.66-26.13-.81-37.25-1.75 47.47 4.53 66.7 64.59 37 99-4.29 4.97-8.61 8.63-14 12-18.96 11.86-44.26 12.22-63 0-5.88-3.83-10.61-7.33-15-13-30.86-32.53-7.93-94.22 37-98-16.44-3.3-36.92-3.08-46.75 11.25S110 145.13 110 163m163-13c3.3 8.15 8.43 13.95 18 13 .01 4.46-5.07 7.27-8 10 .51 4.36 1.77 8.54 2 13-4.81 1.68-8.07-4.67-12.23-4.77s-8.02 6.36-12.77 4.77c.22-4.44 1.49-8.6 2-13-5.63-2.35-11.47-12.24-2-11 9.48 1.24 6.69-8.7 13-12m58 36c-8.43-3.5-15.81-4.49-24 0 3.65-9.98-2.8-15.53-7-23 9.38.56 15.6-3.94 18-13 5.98-.55 3.63 11.92 9.23 11.77 5.6-.16 14.65 2.31 7.02 7.48S331.83 179 331 186m53-23c-4.23 7.5-10.62 12.98-7 23-8.48-3.97-15.38-3.76-24 0-.94-6.14 4.38-11.84-2.75-16.25s-1.59-8.39 4.75-7.75 5.65-9.02 9-12c5.75 5.87 8.84 14.93 20 13m46 0c-4.22 7.47-11.05 13.31-6 23-4.81 1.68-8.07-4.67-12.23-4.77s-8.02 6.36-12.77 4.77c.22-4.44 1.49-8.6 2-13-4.6-1.75-11.95-11.96-2.99-10.99 8.96.96 8.69-6.64 12.99-12.01 5.04 6.82 8.61 14.51 19 13m40 23c-4.8.76-8.41-4.14-13.01-3.99-4.59.15-7.36 6.19-11.99 2.99 5.83-9.18-2.66-14.78-6-22 9.38.56 15.6-3.94 18-13 5.94-.45 3.48 11.97 9.23 11.77 5.75-.21 14.57 2.33 7.02 7.48-7.56 5.14-2.48 9.77-3.25 16.75Z"/><path fill="#2B2246" fill-opacity=".98" stroke="None" d="M160 156c.83.76 2.04 1.48 3 2 2.76-3.68 6.04-7.16 6-12 11.12 6.87 24.49 10.87 37 8 2.38-5.41 2.14-11.87-1-17-1.35-1.87-5.22-5.61-7-7-10.42-7.17-33.47-7.78-34 9-8.79 2.78-7.17 10.8-4 17Z"/><path fill="#9D98AA" fill-opacity=".45" stroke="None" d="M205 137c-1.6-2.61-4.41-5.28-7-7 1.78 1.39 5.65 5.13 7 7Z"/><path fill="#F3AB91" fill-opacity=".99" stroke="None" d="M160 156c3.77 7.38-.42 17.07 5 24 .98 1.26 2.91 2.79 4 4 4.01 4.47 4.85 16.94 14.03 16.98 9.17.03 10.67-12.63 14.97-16.98 2.31-2.33 1.92-3.32 5-3-.12-.08-.88-1.76-1-2-1.04-2.02.61-5.02 2-7 0-4.85-1.16-12.08 1-16 .33-.6.71-1.35 1-2-12.51 2.87-25.88-1.13-37-8 .04 4.84-3.24 8.32-6 12-.96-.52-2.17-1.24-3-2m31 31c-1.29 7.92-13.51 7.99-15 0z"/><path fill="#EC783C" stroke="None" d="M273 150c-6.31 3.3-3.52 13.24-13 12-9.47-1.24-3.63 8.65 2 11-.51 4.4-1.78 8.56-2 13 4.75 1.59 8.61-4.87 12.77-4.77s7.42 6.45 12.23 4.77c-.23-4.46-1.49-8.64-2-13 2.93-2.73 8.01-5.54 8-10-9.57.95-14.7-4.85-18-13Z"/><path fill="#EC793C" stroke="None" d="M331 186c.83-7-4.38-11.58 3.25-16.75s-1.42-7.64-7.02-7.48c-5.6.15-3.25-12.32-9.23-11.77-2.4 9.06-8.62 13.56-18 13 4.2 7.47 10.65 13.02 7 23 8.19-4.49 15.57-3.5 24 0ZM384 163c-11.16 1.93-14.25-7.13-20-13-3.35 2.98-2.66 12.64-9 12s-11.88 3.34-4.75 7.75 1.81 10.11 2.75 16.25c8.62-3.76 15.52-3.97 24 0-3.62-10.02 2.77-15.5 7-23Z"/><path fill="#EC783C" stroke="None" d="M430 163c-10.39 1.51-13.96-6.18-19-13-4.3 5.37-4.03 12.97-12.99 12.01-8.96-.97-1.61 9.24 2.99 10.99-.51 4.4-1.78 8.56-2 13 4.75 1.59 8.61-4.87 12.77-4.77s7.42 6.45 12.23 4.77c-5.05-9.69 1.78-15.53 6-23Z"/><path fill="#EC793C" stroke="None" d="M470 186c.77-6.98-4.31-11.61 3.25-16.75 7.55-5.15-1.27-7.69-7.02-7.48-5.75.2-3.29-12.22-9.23-11.77-2.4 9.06-8.62 13.56-18 13 3.34 7.22 11.83 12.82 6 22 4.63 3.2 7.4-2.84 11.99-2.99 4.6-.15 8.21 4.75 13.01 3.99Z"/><path fill="#F8D2C3" fill-opacity=".17" stroke="None" d="M204 172v1c1.24-5.02-.17-11.52 1-17-2.16 3.92-1 11.15-1 16Z"/><path fill="#F7F2BE" fill-opacity=".22" stroke="None" d="M110 174v-11c-.33 3.39-.33 7.54 0 11Z"/><path fill="#F5B198" fill-opacity=".46" stroke="None" d="M202 179c.05-2.01 1.95-3.68 2-6v-1c-1.39 1.98-3.04 4.98-2 7Z"/><path fill="#5B499B" fill-opacity=".98" stroke="None" d="M137 207c4.39 5.67 9.12 9.17 15 13-1.44-4.2 4.4-16.65 5.93-20.07 1.52-3.43 7.19-16.01 11.07-15.93-1.09-1.21-3.02-2.74-4-4-6.27-.97-11.86 8.06-16.75 11.25S140.1 202.6 137 207Z"/><path fill="#5B4A9C" fill-opacity=".97" stroke="None" d="M198 184c3.7.2 9.05 12.13 10.31 15.69 1.25 3.57 8.13 16.12 6.69 20.31 5.39-3.37 9.71-7.03 14-12 1.17-6.42-7.35-11.58-10.25-16.75-2.89-5.17-11.49-7.56-15.75-10.25-3.08-.32-2.69.67-5 3Z"/><path fill="#947FE4" stroke="None" d="M152 220c18.74 12.22 44.04 11.86 63 0 1.44-4.19-5.44-16.74-6.69-20.31-1.26-3.56-6.61-15.49-10.31-15.69-4.3 4.35-5.8 17.01-14.97 16.98-9.18-.04-10.02-12.51-14.03-16.98-3.88-.08-9.55 12.5-11.07 15.93-1.53 3.42-7.37 15.87-5.93 20.07Z"/><path fill="#362848" stroke="None" d="M191 187h-15c1.49 7.99 13.71 7.92 15 0Z"/><path fill="#DAD9FF" fill-opacity=".07" stroke="None" d="M570 188c4.31-.09 8.69-.16 13 0-4.19-.6-8.77-.51-13 0Z"/><path fill="#937FE4" fill-opacity=".97" stroke="None" d="M529 226c-.44 11.49 1.4 23.6 0 35 2.51-3.51 6.17-4.68 5-10s.21-10.6 1-15c1.57-23.1 25.03-34.1 45.02-31.02 20 3.07 38.3 27.33 29.98 48.02 3.61-1.38 10.02-1.56 14-1-.34-10.75 1.52-27.89-2.98-37.02-4.49-9.14-10.75-16.66-17.02-20.98-6.73-2.77-13.14-5.7-21-6-4.31-.16-8.69-.09-13 0-19.72.39-40.22 17.52-41 38Z"/><path fill="#30274D" fill-opacity=".96" stroke="None" d="M624 252c3.76.52 10.21 3.55 13 6-.17-.43 0-1.5 0-2 0-3 .06-6 0-9-.12-5.82-1.16-10.7-3-16-.64-1.32-1.46-2.4-2-4-4.47-13.11-14.74-27.54-28-33 6.27 4.32 12.53 11.84 17.02 20.98 4.5 9.13 2.64 26.27 2.98 37.02Z"/><path fill="#271E43" stroke="None" d="M535 236c-.45 6.64.34 13.36 0 20 .94-.57 1.82-1.15 3-1 .06-2.26-.53-4.42 1-6 2.17-2.24 7.38-.31 10.07-2.93 2.7-2.61 7.56-1.44 10.93-1.07-.11-8.97 13.94-13.92 17-23 .75 5.81 2.34 11.41 4 17-3.53.22-6.72 1.78-10 3 2.85 4.13 13.04-1.25 15.25 6.75 2.22 7.99 8.13 7.98 12.75 13.25 1.86-2.77 8.2-7.93 11-9 8.32-20.69-9.98-44.95-29.98-48.02-19.99-3.08-43.45 7.92-45.02 31.02Z"/><path fill="#EBA48B" fill-opacity=".54" stroke="None" d="M679 213c3.9-5.56 18.15-1.37 25-2s19.49-.92 27 0 20.94-2.9 28 0c-4.85-3.07-13.93-.39-20-1s-15 .01-21 0-15.74-.58-21 0-16.47-2.87-18 3Z"/><path fill="#EC773D" stroke="None" d="M679 213v1c0 13 .01 26 0 39 0 0-.12.53 0 1 3.5 4.99 12.43-.71 16 3 .4 4.52-1.12 10.31 1 14 4.62-1.03 9.16-10.23 13-13 12.37-8.93 35.98 3.77 50-2 1.61-1.02 1.37-1.34 2-3 1.27-5.82.08-12.96 0-19s1.29-14.07 0-20c-.64-1.7-.34-1.95-2-3-7.06-2.9-20.49.92-28 0s-20.15-.63-27 0-21.1-3.56-25 2m43 9c4.1 2.59-7.63 6.15-11 4s-13.11 2.89-16.67-.33 7-5.19 10.67-3.67 13.5-2.21 17 0m24 9c4.2 2.65-6.27 4.92-10 4s-12.5-.03-17 0-11.34-1.17-16 0-13.21-2.21-6.97-3.97 10.43.21 15.97-.03 12.01-.85 17 0 13.03-2.51 17 0m0 8c4.2 2.65-6.27 4.92-10 4s-12.5-.03-17 0-11.34-1.17-16 0-13.21-2.21-6.97-3.97 10.42.21 15.97-.03 12.01-.85 17 0 13.03-2.51 17 0Z"/><path fill="#E6E6E6" fill-opacity=".04" stroke="None" d="M679 253c.01-13 0-26 0-39-2.87 3.88-.9 14.94-1 20s-1.81 15.2 1 19Z"/><path fill="#EAC6CD" fill-opacity=".14" stroke="None" d="M761 253c2.04-5.39.97-13.79 1-20s1.03-13.64-1-19c1.29 5.93-.08 13.96 0 20s1.27 13.18 0 19Z"/><path fill="#F4AB90" stroke="None" d="M539 249v16c0 10.68 1.01 25.08 7 34 3.54 5.26 11.1 7.91 17 8v3c3.97 8.02-4.67 12.98-3 21s1.37 15.78 2 24c17-8.12 32.26-20.41 49-29-4.49 5.94-8.63 8.61-13.25 14.75-4.61 6.14.62 19.16-2.75 26.25-2.43 25.85-6.81 60.17-5 86s-.05 53.49 19.25 71.75S657.46 517.58 667 501c.76-1.33 3.03-4.51 3-6-4.73-5.76-7.35-12.36-13.3-17.7s-9.01-13.24-10.01-20.99c-.99-7.76-6.93-17.92-3.69-24.31-6.03-6.15-7.28-17.27-8-25 .01-.13-.8-.68-1-1-4.95-7.92-3.2-17.65-7.78-26.22-4.57-8.57 3.95-15.8 7.03-23.53 3.09-7.72 10.46-15.28 11.75-23.25.78-4.82-1.17-12.95 1.99-17.01S644.98 300.1 643 306c.57 8.49-1.52 19.37-8 25 5.5-7.15 5.22-16.8 7-25 .63-7.41-7.44-7.73-7-1 .55 8.33-.96 18.81-8 24 5.46-6.78 6.03-15.97 7-24 .98-11.67-9.2-4.51-7 3s-3.55 13.06-7 18c4.84-8.02 6.49-17.25 6-27-1.56.41-5.55 1-7 1 .23.35.13 1.54 0 2-1.3 4.69-2.92 9.91-5 14-.93-4.67-2.27-9.24-3-14-.08-.49 0-1 0-1-6.59.87-12.14 10.01-19.22 9.78-7.09-.24-12.31 14-19.52 5.96-7.21-8.03 5.08-12.88 11.96-11.52 6.89 1.36 14.5-7.93 20.78-9.22-8.65-8.73-12.28-22.61-6-34-4.62-5.27-10.53-5.26-12.75-13.25-2.21-8-12.4-2.62-15.25-6.75 3.28-1.22 6.47-2.78 10-3-1.66-5.59-3.25-11.19-4-17-3.06 9.08-17.11 14.03-17 23-3.37-.37-8.23-1.54-10.93 1.07-2.69 2.62-7.9.69-10.07 2.93m11 4c4.7 1.69 3.23 14.55-2.68 12.66s-4-15.06 2.68-12.66m29 0c5 1.6 3.13 14.64-2.68 12.66-5.81-1.97-4.14-14.84 2.68-12.66m-26 22c.17-.05 6.07 1.07 5 3-2.19-.52-5.62 1.14-7-1-1.3-2.06 2.78-7.51 2.98-10.02.19-2.51 2.94-8.28 5.02-8.98-1.97 5.7-4.57 11.12-6 17m33 3c-2.43 12.89-22.02 19.46-28 6 10 .6 19.03-2.76 28-6Z"/><path fill="#FDF7F4" stroke="None" d="M722 222c-3.5-2.21-13.33 1.52-17 0s-14.23.45-10.67 3.67 13.3-1.82 16.67.33 15.1-1.41 11-4Z"/><path fill="#B7A9F0" fill-opacity=".35" stroke="None" d="M528 263c.61-.87.84-.68 1-2 1.4-11.4-.44-23.51 0-35-1.59 11.14 1.5 25.51-1 37Z"/><path fill="#A9A5C4" fill-opacity=".36" stroke="None" d="M634 231c-.55-1.57-1.38-2.7-2-4 .54 1.6 1.36 2.68 2 4Z"/><path fill="#FDF5F1" stroke="None" d="M746 231c-3.97-2.51-12.01.85-17 0s-11.46-.24-17 0-9.73-1.73-15.97.03 2.31 5.14 6.97 3.97 11.5.03 16 0 13.27-.92 17 0 14.2-1.35 10-4Z"/><path fill="#5B499A" fill-opacity=".98" stroke="None" d="M529 261c-.16 1.32-.39 1.13-1 2-5.52 7.89-4.68 19.36 1 27 1.89 2.17 5.55 3.78 7 6 3.3 2.04 6.7 1.63 10 3-5.99-8.92-7-23.32-7-34-.27-2.77-1.1-6.54-1-10-1.18-.15-2.06.43-3 1 .34-6.64-.45-13.36 0-20-.79 4.4-2.17 9.68-1 15s-2.49 6.49-5 10Z"/><path fill="#FBE2D5" stroke="None" d="M746 239c-3.97-2.51-12.01.85-17 0s-11.45-.24-17 0-9.73-1.73-15.97.03 2.31 5.14 6.97 3.97 11.5.03 16 0 13.27-.92 17 0 14.2-1.35 10-4m0 2c-16.26 1.66-35.81 1.67-52 0 16.26-1.66 35.81-1.67 52 0Z"/><path fill="#FEFCFC" stroke="None" d="M746 241c-16.19-1.67-35.74-1.66-52 0 16.19 1.67 35.74 1.66 52 0Z"/><path fill="#DCDBE9" fill-opacity=".06" stroke="None" d="M637 256c1.39-3.27.38-5.86 0-9 .06 3 0 6 0 9Z"/><path fill="#9B7084" stroke="None" d="M538 255c-.1 3.46.73 7.23 1 10v-16c-1.53 1.58-.94 3.74-1 6Z"/><path fill="#5A4799" stroke="None" d="M610 253c-2.8 1.07-9.14 6.23-11 9-6.28 11.39-2.65 25.27 6 34-6.28 1.29-13.89 10.58-20.78 9.22-6.88-1.36-19.17 3.49-11.96 11.52 7.21 8.04 12.43-6.2 19.52-5.96 7.08.23 12.63-8.91 19.22-9.78 1.19-4.02 6.23-1.01 8-1 1.45 0 5.44-.59 7-1 8.18-2.15 17.42-12.68 18-21 .1-1.42-.76-5.27-1-7-1.26-5.34-4.02-8.09-6-13-2.79-2.45-9.24-5.48-13-6-3.98-.56-10.39-.38-14 1m18 4c20.49 5.08 11.97 43.48-9.07 37.07-21.05-6.4-13.83-42.74 9.07-37.07Z"/><path fill="#B7ABF0" fill-opacity=".35" stroke="None" d="M261 254c4.33-.39 9.69-.53 14 0-4.5-1.12-9.45-.94-14 0Z"/><path fill="#2E2345" stroke="None" d="M550 253c-6.68-2.4-8.59 10.77-2.68 12.66S554.7 254.69 550 253Z"/><path fill="#2F2345" stroke="None" d="M579 253c-6.82-2.18-8.49 10.69-2.68 12.66 5.81 1.98 7.68-11.06 2.68-12.66Z"/><path fill="#9782E6" fill-opacity=".95" stroke="None" d="M237 280c-.15 4.51.21 9.57 1 14 3.49 11.04 12.99 20.35 25 21 3.25.18 6.75.22 10 0 4.3-.29 8.4-1.6 12-4 2.61-2.04 7-6.44 9-9 12.62-18.98 1.53-42.91-19-48-4.31-.53-9.67-.39-14 0-13.6 2.82-21.82 12.58-24 26m27-8c-4.04-1.02-10.29-6.11-13 0-8.99-6.37 15.19-10.96 13 0m23 0c-2.74-6.94-17.21 2.58-15.21-3.23S289.37 263.7 287 272m-1 11c4.54 25.09-41.25 25.38-36 0z"/><path fill="#ECB3A7" fill-opacity=".37" stroke="None" d="M694 257h1c-3.57-3.71-12.5 1.99-16-3 1.3 4.98 11.23 3 15 3ZM709 258c7.06-3.57 17.46.77 25-1s18.62 3.04 25-1c-14.02 5.77-37.63-6.93-50 2Z"/><path fill="#937EE4" stroke="None" d="M628 257c-22.9-5.67-30.12 30.67-9.07 37.07 21.04 6.41 29.56-31.99 9.07-37.07Z"/><path fill="#EBC4C2" fill-opacity=".2" stroke="None" d="M696 271c-2.12-3.69-.6-9.48-1-14h-1c-.35 3.93-1.21 14.72 2 14Z"/><path fill="#4D3952" stroke="None" d="M551 277c.37-.56 1.7-1.45 2-2 1.43-5.88 4.03-11.3 6-17-2.08.7-4.83 6.47-5.02 8.98-.2 2.51-4.28 7.96-2.98 10.02Z"/><path fill="#F4F2FC" stroke="None" d="M264 272c2.19-10.96-21.99-6.37-13 0 2.71-6.11 8.96-1.02 13 0Z"/><path fill="#F4F3FC" stroke="None" d="M287 272c2.37-8.3-13.21-9.04-15.21-3.23s12.47-3.71 15.21 3.23Z"/><path fill="#B7B0D2" fill-opacity=".32" stroke="None" d="M644 278c.65.97 3.9 2.32 5 3-.76-2.21-3.15-3.03-5-4 .78-2.15-.65-4.51-1-6 .24 1.73 1.1 5.58 1 7Z"/><path fill="#795661" stroke="None" d="M551 277c1.38 2.14 4.81.48 7 1 1.07-1.93-4.83-3.05-5-3-.3.55-1.63 1.44-2 2Z"/><path fill="#FEFAF9" stroke="None" d="M586 278c-8.97 3.24-18 6.6-28 6 5.98 13.46 25.57 6.89 28-6Z"/><path fill="#2A2145" fill-opacity=".99" stroke="None" d="M626 299c.49 9.75-1.16 18.98-6 27 3.45-4.94 9.2-10.49 7-18s7.98-14.67 7-3c.26-.25 1 0 1 0-.44-6.73 7.63-6.41 7 1 .26-.25 1 0 1 0 1.98-5.9 7.15 5.93 3.99 9.99S645.78 328.18 645 333c5.29.47 9.5 6.39 15 6 0 0-.13-.53 0-1 .53-1.96 2.03-2.65 3-4 1.95-3.37 3.07-6.26 4-10 .54-4.37.3-9.61 0-14-.48-6.99-3.82-14.38-8-20-2.74-3.15-6.57-5.52-9-9 0 0-.64.22-1 0-1.1-.68-4.35-2.03-5-3-.58 8.32-9.82 18.85-18 21Z"/><path fill="#C4BBF4" fill-opacity=".25" stroke="None" d="M238 294c-.79-4.43-1.15-9.49-1-14-.78 4.83-.52 9.18 1 14Z"/><path fill="#B1AAC4" fill-opacity=".34" stroke="None" d="M659 290c-2.15-2.89-5.63-7.35-9-9 2.43 3.48 6.26 5.85 9 9Z"/><path fill="#FDFCFE" stroke="None" d="M286 283h-36c-5.25 25.38 40.54 25.09 36 0Z"/><path fill="#C2BCDF" fill-opacity=".24" stroke="None" d="M536 298c-.02-.5.23-1.65 0-2-1.45-2.22-5.11-3.83-7-6 1.21 1.63 5.26 7.49 7 8Z"/><path fill="#2A2145" fill-opacity=".98" stroke="None" d="M536 298c.14 2.96-.4 4.53-3 6-1.41.79-2.14.77-4 1-7.13.89-10.02 3.89-13 10-.47 1.33-1.79 3.99-2 5-.55 4.44 2.13 8.47 2 12 4.15 4.51 20.32-7.18 27-6 .86-5.55 4.57-7.47 8.08-9.92s11.34-3.22 11.92-6.08v-3c-5.9-.09-13.46-2.74-17-8-3.3-1.37-6.7-.96-10-3 .23.35-.02 1.5 0 2Z"/><path fill="#261D46" stroke="None" d="M611 301s-.08.51 0 1c1.85.17 6.33.74 8 0 .13-.46.23-1.65 0-2-1.77-.01-6.81-3.02-8 1Z"/><path fill="#D6CCFF" fill-opacity=".91" stroke="None" d="M401 301c-32.67-1.37-36.52 49.81-3 52s35.54-50.64 3-52m-6 21c-4.89-1.8-9.26-2.34-14 0-.51-8.23 14.24-7.43 14 0m23 0c-4.71-2.36-9.07-1.78-14 0-.26-7.39 14.51-8.26 14 0m-9 11c-3.96 7.59-15.06 7.53-19 0 6.18 1.27 12.82 1.26 19 0Z"/><path fill="#C5BBF4" fill-opacity=".26" stroke="None" d="M285 311c3.22-2.14 6.82-5.72 9-9-2 2.56-6.39 6.96-9 9Z"/><path fill="#F7F3F2" stroke="None" d="M619 302c-1.67.74-6.15.17-8 0 .73 4.76 2.07 9.33 3 14 2.08-4.09 3.7-9.31 5-14Z"/><path fill="#948CA9" fill-opacity=".53" stroke="None" d="M529 305c1.86-.23 2.59-.21 4-1-.94.34-3.31.82-4 1Z"/><path fill="#533D54" stroke="None" d="M635 305s-.74-.25-1 0c-.97 8.03-1.54 17.22-7 24 7.04-5.19 8.55-15.67 8-24Z"/><path fill="#553F55" stroke="None" d="M643 306s-.74-.25-1 0c-1.78 8.2-1.5 17.85-7 25 6.48-5.63 8.57-16.51 8-25Z"/><path fill="#FDFBFA" stroke="None" d="M543 326c-1.66 10.63-3.18 21.15-4 32 4.88-2.22 10.72-3.09 15-6 2.76 3.3 6.09 7.07 5 12 .95-4.39 11.98-7.57 17-6s6.77 10.82 10 14c3.73-.09 5.6-4.05 9-5 3.37-7.09-1.86-20.11 2.75-26.25 4.62-6.14 8.76-8.81 13.25-14.75-16.74 8.59-32 20.88-49 29-.63-8.22-.33-15.98-2-24s6.97-12.98 3-21c-.58 2.86-8.41 3.63-11.92 6.08s-7.22 4.37-8.08 9.92Z"/><path fill="#9D98B2" fill-opacity=".46" stroke="None" d="M667 324c1.12-4.53.82-9.44 0-14 .3 4.39.54 9.63 0 14Z"/><path fill="#D7CEFF" fill-opacity=".66" stroke="None" d="M748 321c-6.3-1.37-8.08-8.68-13-11-.8 5.81-7.17 8.65-11 12 5.27 1.47 9.2 6.42 12 11 3.11-4.6 7.31-8.93 12-12Z"/><path fill="#CFC6F5" fill-opacity=".19" stroke="None" d="M273 315c-3.25.22-6.75.18-10 0 3.4.55 6.53.62 10 0Z"/><path fill="#AFAAC0" fill-opacity=".35" stroke="None" d="M514 320c.21-1.01 1.53-3.67 2-5-.91 1.87-1.7 2.56-2 5Z"/><path fill="#FBFBFF" stroke="None" d="M395 322c.24-7.43-14.51-8.23-14 0 4.74-2.34 9.11-1.8 14 0ZM418 322c.51-8.26-14.26-7.39-14 0 4.93-1.78 9.29-2.36 14 0Z"/><path fill="#EC773F" stroke="None" d="M516 332c-.21 5.83-10.98 10.54-13.08 16.92-2.09 6.39-6.36 13.68-9.15 19.85s-6.36 13.83-9.46 19.54c-3.11 5.7-6.01 14.78-9.53 19.47S470.31 425.06 465 427c5.91 1.6 14.04 2.87 20.02 4.98 5.99 2.1 15.82.82 20.98 4.02 4.2 2.6 1.51 10.28 2 15s0 12.05 0 17v1c1.75.93 3.42 1.83 5 3-.72-7.21 2.46-15.96-4-21 7.23 4.87 2.77-8.68 4-13-2.7-10.41-7.85-20.15-9-31 9.56 20.02 14.04 44.3 10 67v23c0 5.28-1.09 12.95 0 18s-2.7 14.86 0 19c13.98 2.32 29.64 8.55 44 8-3.81-8.59.48-20.67-2-30-2.47-9.33-1.25-20.3-2.98-30.02-1.72-9.73-.46-21.16-2.02-30.98s-1.91-20.12-2.99-30.01 2.5-19.7 3.99-28.99 4.82-17.64 6-27c-4.5 27.84-10.99 55.12-6 85s3.01 62.06 8 92c20.12 7.01 42.51 7.37 63.67 12.33 21.16 4.95 43.83 7.6 65.33 11.67-5.22-5.82-1.54-17.59-4.99-25.01-3.46-7.42-1.52-18.5-4.34-26.66s-.34-16.27 2.26-24.4c2.59-8.14 3.64-17.29 5.07-25.93s3.63-16.97 3.93-26.07c.29-9.1.54-21.84.07-30.93s-1.66-18.35-3-26c-1.69-9.66-7.14-15.51-10.08-24.92-2.94-9.42-11.08-11.99-17.92-17.08-5.5.39-9.71-5.53-15-6-1.29 7.97-8.66 15.53-11.75 23.25-3.08 7.73-11.6 14.96-7.03 23.53 4.58 8.57 2.83 18.3 7.78 26.22 1.25-9.23 12.44-18.01 16-26-3.96 9.4-10.44 17.76-15 27 .72 7.73 1.97 18.85 8 25-3.24 6.39 2.7 16.55 3.69 24.31 1 7.75 4.06 15.65 10.01 20.99s8.57 11.94 13.3 17.7c2.21 2.69 5.87 4.44 7 8-3.7.67-6.6-1.44-10-2-9.54 16.58-38.45 42.01-57.75 23.75S591.81 478.83 590 453s2.57-60.15 5-86c-3.4.95-5.27 4.91-9 5-3.23-3.18-4.98-12.43-10-14s-16.05 1.61-17 6c1.09-4.93-2.24-8.7-5-12-4.28 2.91-10.12 3.78-15 6 .82-10.85 2.34-21.37 4-32-6.68-1.18-22.85 10.51-27 6m-12 62c.36 3.97-.27 8.02 0 12-2.19-3.09-.43-8.16-1-12 .97-9.95 7.87-18.72 14-26-4.1 8.66-11.24 16.52-13 26m70-14c5.02 2.3.03 10.73-4.67 7.67s-.22-9.91 4.67-7.67m-94 47c-6.87-1.09-1.13-6.88 0 0m89-4c4.68 1.86 1.39 10.44-3.67 7.67s-.23-9.22 3.67-7.67m1 44c3.8 2.49-.94 10.63-5.22 7.22s1.1-9.91 5.22-7.22m2 43c4.63 1.99 1.41 10.48-3.67 7.67s-.75-9.57 3.67-7.67Z"/><path fill="#FBFAFF" stroke="None" d="M409 333c-6.18 1.26-12.82 1.27-19 0 3.94 7.53 15.04 7.59 19 0Z"/><path fill="#A8A0BC" fill-opacity=".4" stroke="None" d="M660 338c1.65-1.2 1.98-2.23 3-4-.97 1.35-2.47 2.04-3 4Z"/><path fill="#D7CDFF" fill-opacity=".67" stroke="None" d="M201 339c-3.92 3.77-7.62 8.67-12 12 5.68 1.76 8.32 7.08 12 11 1.76-5.68 7.08-8.32 11-12-5.07-2.04-8.61-6.14-11-11Z"/><path fill="#FADDCF" stroke="None" d="M558 542c.5-.02 1.55-.16 2 0-4.99-29.94-3.01-62.12-8-92s1.5-57.16 6-85c-1.18 9.36-4.51 17.71-6 27s-5.07 19.1-3.99 28.99 1.43 20.19 2.99 30.01.3 21.25 2.02 30.98c1.73 9.72.51 20.69 2.98 30.02 2.48 9.33-1.81 21.41 2 30Z"/><path fill="#FADACB" stroke="None" d="M503 394c0-.04 1 0 1 0 1.76-9.48 8.9-17.34 13-26-6.13 7.28-13.03 16.05-14 26Z"/><path fill="#947FE5" stroke="None" d="M238 380c-2.78 1.42-5.33 6.29-8 8 20.01 8.69 43.86 8.41 65.22 14.78 21.37 6.37 45.09 8.39 66.85 14.15 21.77 5.76 44.89 8.86 66.94 14.06 22.04 5.21 44.59 9.93 66.99 14.01v182c2.08-.07 4.92-2.32 7 0-2.81 5.03-8.94 6.45-12 11 .21.04.65.89 1 1 3.65-1.09 7.17-5.95 10.7-8.3s10.81-3.45 14.52-.92c3.72 2.53 15.51-.38 15.78 4.22 1.22-.91 2-2.09 3-3-8.46 1.63-19.49-4.43-27-6 7.45-1.74 10.3-11.95 18.08-12.92 7.78-.96 18.58 6.08 26.92 4.92.25-.25.74-.88 1-1-1.51-2.71-10.08-.96-13.07-2.93-3-1.96-10.35-.06-12.93-3.07 5.34-4.34 11.51-7.88 16-13 9.41 1.32 18.41 4.31 28 5 8.99 5.45-5.29 18.31-11.75 22.25-6.47 3.94-14.57 13.29-21.95 17.05-7.37 3.76-13.31 16.22-22.31 16.69s-21.68-7.68-31.01-7.97c-9.34-.28-21.99-8.66-31.05-7.95-9.06.72-21.2 3.71-27.18 11.68-5.97 7.97 7.33 16 14.5 21 7.16 5 8.54 20.58 2.45 27.95-6.1 7.36-10.47 14.74-17.95 21.05S412.23 735.03 405 741c15.73 4.4 32.28 9.9 48.01 13.99s31.69 11.28 47.21 14.79c15.53 3.5 32.88 11.65 47.85 14.15s24.36-16.88 36.18-24.68c11.82-7.81 21.69-20.02 33-29 11.3-8.99 21.76-19.69 33-29s22.29-20.07 33.5-29.5c11.22-9.43 21.75-19.62 33-29 11.24-9.39 21.68-19.66 33-29S771.81 593.61 783 584c-3.71-4.01-13.41-1.8-19.01-3.99s-14.1-1.81-20.21-3.79c-6.12-1.98-14.35-1.95-20.78-3.22-.11-1 .47-2.73-1-3-.64 4.05-11.91.24-16 0s-12.99-3.24-17-4c-21.5-4.07-44.17-6.72-65.33-11.67-21.16-4.96-43.55-5.32-63.67-12.33-.45-.16-1.5-.02-2 0-14.36.55-30.02-5.68-44-8-11.67-1.93-7-21-7-32v-34c0-4.51.76-11.76 0-16s2.34-13.09-1-16c-5.16-3.2-14.99-1.92-20.98-4.02-5.98-2.11-14.11-3.38-20.02-4.98-12.45-3.37-25.53-4.83-37.99-8.01-12.47-3.18-25.53-5.06-37.99-8.01-12.45-2.95-25.54-5.45-37.95-8.05-12.4-2.61-25.7-6.12-38-8-12.29-1.88-25.82-7.68-37.85-8.15S249.11 375.82 238 380m487 219c3.5 4.81-1.09 10.23-7.25 14.75-6.15 4.53-9.55 8.42-15 13-5.44 4.58-9.97 8.2-15 13s-10 8.28-15 13-9.54 8.88-14.98 13.02-8.59 9.66-14.52 13.48c-5.94 3.82-15.19-1.06-21.92-2.58s-15.05-4.17-22-6c-6.95-1.82-15.12-3.89-22.01-5.99-6.89-2.11-19.55-1.99-15.32-11.68 3.14-7.19 12.83-10.59 18.75-16.25 5.91-5.67 13.73-10.11 20-16 6.28-5.89 14.03-9.19 20.5-15.5 6.46-6.32 13.38-8.81 20-16 6.61-7.19 17.75-6.22 26.76-3.26s21.48 2.97 30.06 5.94c8.58 2.96 22.34.77 27.12 6.32M518 591c-2.07 3.58-7.09 7.05-11 9v-10c3.94-.72 7.1 1.49 11 1m25 5c-2.52 5.13-7.24 5.03-10.7 9.3s-9.16 4.89-13.97 3.37-13.75-1.44-9.57-6.92c4.17-5.47 7.94-4.11 11.24-9.75 7.74.99 15.07 3.63 23 4m-19 16c-7.87 4.03-13.22 13.93-23 13 .51-2.18 3.6-4.55 6-5v-12c5.47 1.71 12.04 1.73 17 4Z"/><path fill="#AB9DEC" fill-opacity=".44" stroke="None" d="M230 386c-.49.59-.65 1.36-1 2 .26-.25 1 0 1 0 2.67-1.71 5.22-6.58 8-8-2.2.83-6.47 4.16-8 6Z"/><path fill="#FDF5F1" stroke="None" d="M574 380c-4.89-2.24-9.37 4.61-4.67 7.67s9.69-5.37 4.67-7.67Z"/><path fill="#FADDCE" stroke="None" d="M634 406c.2.32 1.01.87 1 1 4.56-9.24 11.04-17.6 15-27-3.56 7.99-14.75 16.77-16 26Z"/><path fill="#584699" fill-opacity=".99" stroke="None" d="M689 566c4.01.76 12.91 3.76 17 4s15.36 4.05 16 0c-.08-.49 0-1.5 0-2v-4c-1.3-5.93-1.05-13.15 0-19 1.34-19.65 8.07-39.92 12.68-58.32 4.61-18.41 16.6-33.71 17.32-52.68.13-3.29.18-6.72 0-10-.28-5.22-1.88-9.81-5-14-3.06-3.51-7.55-7.99-11-11-4.45-3.31-9.07-5.4-13.93-8.07-4.85-2.67-11.32-3-16.05-5.95-4.72-2.96-13.84-.87-18.02-3.98 1.34 7.65 2.53 16.91 3 26s.22 21.83-.07 30.93c-.3 9.1-2.5 17.43-3.93 26.07s-2.48 17.79-5.07 25.93c-2.6 8.13-5.08 16.24-2.26 24.4s.88 19.24 4.34 26.66c3.45 7.42-.23 19.19 4.99 25.01m49-150c-31.43 43.32-37.59 99.58-32 153-6.19-26.02-3.09-61.46 1.99-87.01 5.08-25.54 13.59-46.27 30.01-65.99Z"/><path fill="#D8D8F1" fill-opacity=".08" stroke="None" d="M227 546c.26-.25 1 0 1 0 0-12.95-.32-26.07 0-39s-.82-27.24 0-40-1.87-27.8 0-40-4.63-28.79 1-39c.35-.64.51-1.41 1-2-8.44 7.73-1.27 26.22-3 38s.57 28.28 0 41-.2 27.98 0 41-1.17 27 0 40Z"/><path fill="#261D42" stroke="None" d="M228 546v24c13.84 3.57 27.84 6.56 42 9 .99.26 1.98.71 3 1 2.87.82 6.02 1.54 9 2 1.58.24 2.9.7 4 1 5.81 1.58 20.22 6.7 26 5 1-3.08 3.98-4.18-1.03-5.97-5-1.8-9.22 2.16-9.94-4.06-.73-6.22-.41-5.77-.03-13.97s-.69-18.6 0-27-1.4-19.9 0-28-3.5-20.7 1-27c4.95-6.93 18.28.31 26 1 7.73.69 19.43 4.98 28.01 5.99 8.58 1.02 19.04 5.34 27.99 6.01v102c-1.99-.28-3.78-1.48-6-1-.49-.06-1 0-1 0-3.97-1.27-16.5-1.45-16.97-6.03-.47-4.57 5.17-15.21.97-19.97-9.01 29.87-19.51 59.25-29 89 7.1-5.02 12.37-12.14 14-20 4.12-13.59 7.05-27.61 12-41 7.57 1.99 15.25 3.58 23 5 7.38 1.35 14.62 3.56 22 5 1.06.21 2.38.86 3 1 7.26 1.62 14.85 1.84 22 4 .35.11.79.96 1 1 7.67 1.27 15.48 2.02 23 4 .73.19 1.27.75 2 1 6.96 2.35 14.8 2.37 22 4 .95.22 2.01.72 3 1 5.41 1.5 11.16 3.2 17 3V445c-22.4-4.08-44.95-8.8-66.99-14.01-22.05-5.2-45.17-8.3-66.94-14.06-21.76-5.76-45.48-7.78-66.85-14.15-21.36-6.37-45.21-6.09-65.22-14.78 0 0-.74-.25-1 0-5.63 10.21.87 26.8-1 39s.82 27.24 0 40 .32 27.07 0 40 0 26.05 0 39Z"/><path fill="#FEFBFA" stroke="None" d="M504 394s-1-.04-1 0c.57 3.84-1.19 8.91 1 12-.27-3.98.36-8.03 0-12Z"/><path fill="#A79DCF" fill-opacity=".44" stroke="None" d="M747 410c-3.16-4.25-6.67-7.78-11-11 3.45 3.01 7.94 7.49 11 11Z"/><path fill="#FADBCB" stroke="None" d="M513 438c2.74 10.55 1 24.56 1 36 4.04-22.7-.44-46.98-10-67 1.15 10.85 6.3 20.59 9 31Z"/><path fill="#302555" stroke="None" d="M738 416c-16.42 19.72-24.93 40.45-30.01 65.99-5.08 25.55-8.18 60.99-1.99 87.01-5.59-53.42.57-109.68 32-153Z"/><path fill="#F8C5AC" stroke="None" d="M480 427c-1.13-6.88-6.87-1.09 0 0Z"/><path fill="#FEFBFA" stroke="None" d="M569 423c-3.9-1.55-8.73 4.9-3.67 7.67s8.35-5.81 3.67-7.67Z"/><path fill="#C2BAE1" fill-opacity=".24" stroke="None" d="M752 434c.48-3.34.56-6.58 0-10 .18 3.28.13 6.71 0 10Z"/><path fill="#C87981" stroke="None" d="M507 468c0-.04 1 0 1 0 0-4.95.49-12.28 0-17s2.2-12.4-2-15c3.34 2.91.24 11.76 1 16s0 11.49 0 16Z"/><path fill="#F5AD90" stroke="None" d="M508 469c0 10.3 1.47 21.82 0 32 1.34-.63 5.4-2.37 6-4v-23c0-11.44 1.74-25.45-1-36-1.23 4.32 3.23 17.87-4 13 6.46 5.04 3.28 13.79 4 21-1.58-1.17-3.25-2.07-5-3Z"/><path fill="#D6CCFE" fill-opacity=".95" stroke="None" d="M106 557c1.89 6.24 5.45 14.26 6.78 21.22 1.32 6.97 6.32 13.36 8.14 19.86 1.83 6.49 11.06 11.46 11.08 17.92 10.36-5.07 18.32-14.75 28.23-20.77S179.74 580.8 189 574c-3.79-6.07-1.08-16.68-3.33-23.67S183.25 534.39 182 527s-5.17-15.95-3-23c3.72 22.97 8.6 45.67 11 69 7.03-4.63 15.17-9.04 21-15-3.66-2.04-.03-12.16-2-16s-1.98-10.92-4-15c5.37 7.31 5.43 20.11 7 30 2.26-1.06 4.04-2.56 6-4-4.18-3.38-1.39-14.93-3.99-20.01-2.61-5.08-2.4-13.78-4.94-19.06-2.53-5.29-1.94-13.6-8.07-15.93-1.26 5.65-3.01 10.97-3 17s-.65 14.21-1 20 1.78 16.31-2 17c-1.85-15.46-4.99-32.28-9.02-46.98-4.04-14.7-5.51-29.73-13.98-42.02-6.91 23.67-.24 51.33-2 75-8.58-26.97-17.42-58.7-40-77-6.14 28.73 7.59 58.64 9 86-1.79-10.26-9.97-15.69-14.08-24.92s-17.59-12.49-20.14-.3-.76 23.53 1.22 35.22m67 28c-9.2-33.27-19.19-66.27-33-98 15.19 29.17 26.69 65.79 33 98m-50-52c-1.72 26.79 6.44 52.03 22 73-17.47-18.17-25.65-47.53-22-73Z"/><path fill="#FEF9F7" stroke="None" d="M570 467c-4.12-2.69-9.5 3.81-5.22 7.22s9.02-4.73 5.22-7.22Z"/><path fill="#CC98B2" stroke="None" d="M507 502c.05-.23.95-.65 1-1 1.47-10.18 0-21.7 0-32v-1s-1-.04-1 0z"/><path fill="#917CE2" stroke="None" d="M302 482c3.89-2.55 12.12 3.86 17.07 3.93 4.96.07 13.29 2.02 18.6 3.4s12.58 2.16 18 4c5.42 1.83 13.15 1.28 18.33 3.67 7.97 3.69.9 22.13 3 31s-1.97 24.3 0 34-3.57 25 1 34c2.22-.48 4.01.72 6 1V495c-8.95-.67-19.41-4.99-27.99-6.01-8.58-1.01-20.28-5.3-28.01-5.99-7.72-.69-21.05-7.93-26-1Z"/><path fill="#564498" stroke="None" d="M312 588c-4.04 12.42-6.37 28.04-12 41-8.52-2.42-14.32 8.13-20.75 13.25C272.81 647.37 265.64 653 260 659c27.79 8.2 55.2 17.74 83 26 11.28-12.35 24.13-23.21 36-35v10c5.38-11.5-5.9-11.18-12.07-13.93-6.18-2.75-19.23-1.16-20.93-7.07-1.63 7.86-6.9 14.98-14 20 9.49-29.75 19.99-59.13 29-89 4.2 4.76-1.44 15.4-.97 19.97.47 4.58 13 4.76 16.97 6.03-4.54-5.65.54-16.85-1-24s1.15-18.64 0-26 1.52-18.21 0-25 3.72-20.23-2-24c-5.18-2.39-12.91-1.84-18.33-3.67-5.42-1.84-12.69-2.62-18-4s-13.64-3.33-18.6-3.4c-4.95-.07-13.18-6.48-17.07-3.93-4.5 6.3.4 18.9-1 27s.69 19.6 0 28 .38 18.8 0 27-.7 7.75.03 13.97c.72 6.22 4.94 2.26 9.94 4.06 5.01 1.79 2.03 2.89 1.03 5.97Z"/><path fill="#F4F1FF" stroke="None" d="M173 585c-6.31-32.21-17.81-68.83-33-98 13.81 31.73 23.8 64.73 33 98Z"/><path fill="#2F2243" stroke="None" d="M667 501c3.4.56 6.3 2.67 10 2-1.13-3.56-4.79-5.31-7-8 .03 1.49-2.24 4.67-3 6Z"/><path fill="#DBD1FF" fill-opacity=".09" stroke="None" d="M195 552c3.78-.69 1.65-11.21 2-17s1.01-13.97 1-20 1.74-11.35 3-17c6.13 2.33 5.54 10.64 8.07 15.93 2.54 5.28 2.33 13.98 4.94 19.06 2.6 5.08-.19 16.63 3.99 20.01.3-.22.74-.76 1-1-1.31-7.96-3.08-20.25-6.02-27.98-2.95-7.72-1.74-19.99-8.23-25.77S196.84 512.96 197 520s-1.34 24.58-2 32Z"/><path fill="#6E5BB7" stroke="None" d="M377 596s.51-.06 1 0c-4.57-9 .97-24.3-1-34s2.1-25.13 0-34 4.97-27.31-3-31c5.72 3.77.48 17.21 2 24s-1.15 17.64 0 25-1.54 18.85 0 26-3.54 18.35 1 24Z"/><path fill="#E5E0FC" stroke="None" d="M508 501c-.05.35-.95.77-1 1 0 11-4.67 30.07 7 32-2.7-4.14 1.09-13.95 0-19s0-12.72 0-18c-.6 1.63-4.66 3.37-6 4Z"/><path fill="#F4F1FF" stroke="None" d="M189 574c.3-.22.73-.82 1-1-2.4-23.33-7.28-46.03-11-69-2.17 7.05 1.75 15.61 3 23s1.42 16.34 3.67 23.33-.46 17.6 3.33 23.67Z"/><path fill="#FEFAF8" stroke="None" d="M572 510c-4.42-1.9-8.75 4.86-3.67 7.67s8.3-5.68 3.67-7.67Z"/><path fill="#D5CBFE" fill-opacity=".97" stroke="None" d="M778 532c-1.31-16.49-24.33 4.74-29.75 9.25-5.41 4.51-7.82 9.89-13 13S727.66 568.16 722 568c0 .5-.08 1.51 0 2 1.47.27.89 2 1 3 6.43 1.27 14.66 1.24 20.78 3.22 6.11 1.98 14.61 1.6 20.21 3.79s15.3-.02 19.01 3.99c9.16 9.91-6.99 22.71-14.25 28.75-7.25 6.05-16.79 14.78-24.5 21.5s-16 15.08-24 22c-8 6.91-16.24 14.64-24.33 21.67-8.1 7.03-15.79 15.14-24.17 21.83S656.19 715.27 648 722c10.18-2.26 23.56-1 34-1 16.61-.77 35.68-4.22 50.93-9.07 15.24-4.86 27.24-10.15 40.82-18.18 13.59-8.03 20.37-16.06 32.5-27.5 12.12-11.45 6.84-35.16 7.75-51.25-2.38 1.04-3.59 3.89-6 5 9.11-14.22 5.54-30.99 6-48s-.34-35.83 0-53c-16.16 12.06-31.16 27.1-45 42 3.79-9.48 8.01-18.66 9-29Z"/><path fill="#DCD2FF" fill-opacity=".1" stroke="None" d="M722 567v1c5.66.16 8.07-10.64 13.25-13.75s7.59-8.49 13-13c5.42-4.51 28.44-25.74 29.75-9.25 1.67-17.51-22.37 1.33-29.75 7.25S729.92 561.84 722 567Z"/><path fill="#F2F0FE" stroke="None" d="M211 558c.25-.25.74-.88 1-1-1.57-9.89-1.63-22.69-7-30 2.02 4.08 2.03 11.16 4 15s-1.66 13.96 2 16Z"/><path fill="#F4F2FF" stroke="None" d="M123 533c-3.65 25.47 4.53 54.83 22 73-15.56-20.97-23.72-46.21-22-73Z"/><path fill="#AAA0D2" fill-opacity=".4" stroke="None" d="M722 564c0-6.28-.43-12.73 0-19-1.05 5.85-1.3 13.07 0 19Z"/><path fill="#B7ADEF" fill-opacity=".35" stroke="None" d="M221 551c1.71-.74 5.84-1.74 7-3v-2s-.74-.25-1 0c-1.69 1.65-4.12 3.49-6 5Z"/><path fill="#937EE5" stroke="None" d="M221 551c-.63.27-1.47.51-2 1-.26.24-.7.78-1 1-1.96 1.44-3.74 2.94-6 4-.26.12-.75.75-1 1-5.83 5.96-13.97 10.37-21 15-.27.18-.7.78-1 1-9.26 6.8-18.86 15.21-28.77 21.23S142.36 610.93 132 616c-.4.2-1 0-1 0-3.28 3.21-8.02 6.27-12 9-8.57 7.92-17.81 15.18-27 22 7.22 2.26 14.39 4.07 21.67 6.33 7.28 2.25 14.01 4.27 21.4 6.6 7.39 2.32 14.79 3.91 22.15 6.85 7.37 2.94 14.35 2.3 21.8 6.2 7.46 3.89 12.09-1.49 16.73-7.23 4.64-5.73 9.79-9.28 14.5-14.5s9.22-9.4 14.5-13.5c5.27-4.11 10.25-8.74 15.95-12.05 5.7-3.32 13.47-9.11 20.3-8.7 6.83.42 15.22-7.75 13.98-14.02-1.25-6.27.48-20.12-4.98-23.98a525 525 0 0 1-42-9v-22c-1.16 1.26-5.29 2.26-7 3Z"/><path fill="#DACFFF" fill-opacity=".11" stroke="None" d="M131 616s.6.2 1 0c-.02-6.46-9.25-11.43-11.08-17.92-1.82-6.5-6.82-12.89-8.14-19.86-1.33-6.96-4.89-14.98-6.78-21.22 1.85 10.96 5.48 22.5 9.23 32.77S126 606.64 131 616Z"/><path fill="#59489B" fill-opacity=".99" stroke="None" d="M92 647c-.35-.11-1.06-.71-1-1-1.7.85-3.45 18.54.98 20.02 4.42 1.48 11.52 3.17 17 5 5.47 1.84 11.5 3.24 17.8 5.2 6.3 1.97 8.96 3.05 16.55 5.45s8.3 1.71 17.98 5.02c9.67 3.32 23.89 7.24 33.67 10.33 9.77 3.1 9.51 2.69 17.8 5.2 8.28 2.51 8.59 2.92 17 5 8.4 2.09 7.18 3.26 17.21 5.79 10.04 2.52 24.19 6.81 33.94 10.06 9.74 3.25 10.38 2.51 17.99 5.01 7.62 2.49 10.17 3.51 16.86 5.14s10.99 4.17 17.2 5.8c6.2 1.64 11.13 3.13 17 5 5.87 1.88 11.24 3.04 17 5 5.75 1.97 12.06 3.27 17.8 5.2 5.74 1.94 11.2 3.24 17 5 5.79 1.76 11.72 3.82 17.54 5.46 5.82 1.63 10.89 3.59 16.66 5.34 5.77 1.76 12.21 3.19 17.95 5.05 5.73 1.87 11.01 3.53 16.85 5.15 5.83 1.62 10.9 3.71 17 5s10.83 4.48 17.21 5.79 13.77 1.77 21.01.99 15.41 1.84 23 0 13.48 4.73 21.3-.7c7.82-5.42 16.38-15.19 23.95-21.05 7.57-5.87 4.74-5.26 11.5-10.5s4.53-4.79 12-11S633.43 734.47 641 728c2.3-2.3 4.77-4.17 7-6 8.19-6.73 15.37-15.56 23.75-22.25s16.07-14.8 24.17-21.83c8.09-7.03 16.33-14.76 24.33-21.67 8-6.92 16.29-15.28 24-22s17.25-15.45 24.5-21.5c7.26-6.04 23.41-18.84 14.25-28.75-11.19 9.61-21.93 20.41-33.25 29.75s-21.76 19.61-33 29c-11.25 9.38-21.78 19.57-33 29-11.21 9.43-22.26 20.19-33.5 29.5s-21.7 20.01-33 29c-11.31 8.98-21.18 21.19-33 29-11.82 7.8-21.21 27.18-36.18 24.68s-32.32-10.65-47.85-14.15c-15.52-3.51-31.48-10.7-47.21-14.79S420.73 745.4 405 741c7.23-5.97 14.27-10.94 21.75-17.25s11.85-13.69 17.95-21.05c6.09-7.37 4.71-22.95-2.45-27.95-7.17-5-20.47-13.03-14.5-21 5.98-7.97 18.12-10.96 27.18-11.68 9.06-.71 21.71 7.67 31.05 7.95 9.33.29 22.01 8.44 31.01 7.97s14.94-12.93 22.31-16.69c7.38-3.76 15.48-13.11 21.95-17.05 6.46-3.94 20.74-16.8 11.75-22.25-5.5 4.82-11.4 10.91-18 14-.26.12-.75.75-1 1-5.29 5.41-12.44 8.92-18 14-1 .91-1.78 2.09-3 3-4.74 3.52-10.07 6.74-14 11-8.86-2.5-17.97-4.05-27-6-.35-.11-.79-.96-1-1-7.35-1.22-14.79-2.12-22-4-.99-.26-1.98-.71-3-1-7.15-2.05-14.98-2.42-22-5-.79-.29-1.15-.82-2-1-7.33-1.52-14.75-2.09-22-4-.78-.2-1.19-.79-2-1-6.93-1.82-14.97-3.94-22-5-.98-.15-2.02.15-3 0-2.9-.44-7.36-3.12-10.22-2.78-2.87.34-9.47-3.74-11.78-2.22-1.18 2.52-1.18 5.83-1 9 26.14 5.75 52.71 12.43 78 20-8.93-.41-29.85 12.89-22.69 22.69 7.15 9.81 23.74 14.98 20.69 28.31-3.05 13.34-10.9 21.1-20.25 28.75s-16.27 19.31-27.78 18.27c-11.5-1.04-25.51-9.1-37.64-11.35-12.13-2.24-25.1-8.57-37.4-11.6-12.31-3.02-24.7-7.28-37-11-12.31-3.71-25.6-7.24-37.95-11.05-12.35-3.8-25.24-7.4-36.98-12.02 11.57-10.38 18.12-21.66 31.25-30.75 13.12-9.09 20.87-21.71 38.75-24.25 17.88-2.53 8.69-31.56 5-44-1.1-.3-2.42-.76-4-1 6.66 5.31 2.26 15.39 6.93 23.07 4.66 7.69.21 20.25-8.93 18.93s-13.04 7.12-19.75 10.25-11.15 8.47-16.95 13.05c-5.8 4.59-10.16 9.16-16.05 13.95-5.88 4.8-9.4 8.66-15 15s-14.48 2.87-22.25.75c6.11-9.65 14.23-15.84 22.25-24.75s16.59-12.89 25.5-21.5c8.9-8.62 21.93-8.91 32.94-14.06 11.02-5.14 5.39-28.47 2.31-36.69-1.02-.29-2.01-.74-3-1 5.46 3.86 3.73 17.71 4.98 23.98 1.24 6.27-7.15 14.44-13.98 14.02-6.83-.41-14.6 5.38-20.3 8.7-5.7 3.31-10.68 7.94-15.95 12.05-5.28 4.1-9.79 8.28-14.5 13.5s-9.86 8.77-14.5 14.5c-4.64 5.74-9.27 11.12-16.73 7.23-7.45-3.9-14.43-3.26-21.8-6.2-7.36-2.94-14.76-4.53-22.15-6.85-7.39-2.33-14.12-4.35-21.4-6.6-7.28-2.26-14.45-4.07-21.67-6.33Z"/><path fill="#927EE4" stroke="None" d="M282 582c-2.98-.46-6.13-1.18-9-2 3.08 8.22 8.71 31.55-2.31 36.69-11.01 5.15-24.04 5.44-32.94 14.06-8.91 8.61-17.48 12.59-25.5 21.5S196.11 667.35 190 677c7.77 2.12 16.65 5.59 22.25-.75s9.12-10.2 15-15c5.89-4.79 10.25-9.36 16.05-13.95 5.8-4.58 10.24-9.92 16.95-13.05S270.86 622.68 280 624s13.59-11.24 8.93-18.93c-4.67-7.68-.27-17.76-6.93-23.07Z"/><path fill="#937EE5" stroke="None" d="M371 612c2.01-4.29 7.63-5.28 10-9-7.75-1.42-15.43-3.01-23-5-4.95 13.39-7.88 27.41-12 41 1.7 5.91 14.75 4.32 20.93 7.07 6.17 2.75 17.45 2.43 12.07 13.93-3.27 6.99-13.19 12.81-18.75 18.25s-13.39 16.57-21.47 14.97-19.58-6.36-27.85-9.15c-8.28-2.78-20.74-6.06-28.61-9.39S256.44 670.9 260 659c5.64-6 12.81-11.63 19.25-16.75 6.43-5.12 12.23-15.67 20.75-13.25 5.63-12.96 7.96-28.58 12-41-5.78 1.7-20.19-3.42-26-5 3.69 12.44 12.88 41.47-5 44-17.88 2.54-25.63 15.16-38.75 24.25-13.13 9.09-19.68 20.37-31.25 30.75 11.74 4.62 24.63 8.22 36.98 12.02 12.35 3.81 25.64 7.34 37.95 11.05 12.3 3.72 24.69 7.98 37 11 12.3 3.03 25.27 9.36 37.4 11.6 12.13 2.25 26.14 10.31 37.64 11.35 11.51 1.04 18.43-10.62 27.78-18.27S442.95 705.34 446 692c3.05-13.33-13.54-18.5-20.69-28.31-7.16-9.8 13.76-23.1 22.69-22.69-25.29-7.57-51.86-14.25-78-20-.18-3.17-.18-6.48 1-9Z"/><path fill="#574599" stroke="None" d="M562 653c4.04-2.68 13.85 4.24 19.01 3.99 5.16-.24 12.32 4.34 18.06 4.94 5.75.59 12.59 3.37 18.6 4.4 6.02 1.03 12.08 3.77 18.35 4.65 6.28.87 8.19-2.2 13.73-7.23 5.53-5.04 6-4.6 12.95-11.05 6.94-6.45 17.54-15.13 24.55-21.45s7.61-5.32 12.5-10.5c4.89-5.17 8.98-5.86 12.48-10.52s11-6.3 12.77-11.23c-4.59-6.3-18.35-4.11-26.93-7.07-8.58-2.97-21.05-2.98-30.06-5.94s-20.15-3.93-26.76 3.26c-6.62 7.19-13.54 9.68-20 16-6.47 6.31-14.22 9.61-20.5 15.5-6.27 5.89-14.09 10.33-20 16-5.92 5.66-15.61 9.06-18.75 16.25m92-9c-7.67 1.31-18-1.19-26.01-2.99S609.16 639.19 604 634c16.73 2.97 33.8 5.21 50 10m-12 11c-15.98-2.03-34.93-4.4-50-10 7.95-.83 17.12 2.1 25.22 3.78 8.11 1.68 19.05 1.53 24.78 6.22Z"/><path fill="#F3F1FC" stroke="None" d="M518 591c-3.9.49-7.06-1.72-11-1v10c3.91-1.95 8.93-5.42 11-9Z"/><path fill="#FBFBFE" stroke="None" d="M543 596c-7.93-.37-15.26-3.01-23-4-3.3 5.64-7.07 4.28-11.24 9.75-4.18 5.48 4.76 5.4 9.57 6.92s10.51.9 13.97-3.37 8.18-4.17 10.7-9.3Z"/><path fill="#FBFBFD" stroke="None" d="M555 616c6.6-3.09 12.5-9.18 18-14-9.59-.69-18.59-3.68-28-5-4.49 5.12-10.66 8.66-16 13 2.58 3.01 9.93 1.11 12.93 3.07 2.99 1.97 11.56.22 13.07 2.93Z"/><path fill="#F9F8FC" stroke="None" d="M725 599c-1.77 4.93-9.27 6.57-12.77 11.23s-7.59 5.35-12.48 10.52c-4.89 5.18-5.49 4.18-12.5 10.5s-17.61 15-24.55 21.45c-6.95 6.45-7.42 6.01-12.95 11.05-5.54 5.03-7.45 8.1-13.73 7.23-6.27-.88-12.33-3.62-18.35-4.65-6.01-1.03-12.85-3.81-18.6-4.4-5.74-.6-12.9-5.18-18.06-4.94-5.16.25-14.97-6.67-19.01-3.99-4.23 9.69 8.43 9.57 15.32 11.68 6.89 2.1 15.06 4.17 22.01 5.99 6.95 1.83 15.27 4.48 22 6s15.98 6.4 21.92 2.58c5.93-3.82 9.08-9.34 14.52-13.48s9.98-8.3 14.98-13.02 9.97-8.2 15-13 9.56-8.42 15-13c5.45-4.58 8.85-8.47 15-13 6.16-4.52 10.75-9.94 7.25-14.75Z"/><path fill="#F7F7FA" stroke="None" d="M371 612c2.31-1.52 8.91 2.56 11.78 2.22 2.86-.34 7.32 2.34 10.22 2.78 2.73-1.92 6.92-8.24 10-9-7.38-1.44-14.62-3.65-22-5-2.37 3.72-7.99 4.71-10 9Z"/><path fill="#A190E6" stroke="None" d="M393 617c.98.15 2.02-.15 3 0 3.51-1.56 5.62-7.16 10-8-.62-.14-1.94-.79-3-1-3.08.76-7.27 7.08-10 9Z"/><path fill="#F7F6FD" stroke="None" d="M524 612c-4.96-2.27-11.53-2.29-17-4v12c-2.4.45-5.49 2.82-6 5 9.78.93 15.13-8.97 23-13Z"/><path fill="#F7F6FA" stroke="None" d="M396 617c7.03 1.06 15.07 3.18 22 5-.35-1.53 8.87-8.42 10-9-7.15-2.16-14.74-2.38-22-4-4.38.84-6.49 6.44-10 8Z"/><path fill="#FBFBFD" stroke="None" d="M536 631c5.56-5.08 12.71-8.59 18-14-8.34 1.16-19.14-5.88-26.92-4.92-7.78.97-10.63 11.18-18.08 12.92 7.51 1.57 18.54 7.63 27 6Z"/><path fill="#A190E6" stroke="None" d="M418 622c.81.21 1.22.8 2 1 .95-.24 8.82-8.08 9-9-.21-.04-.65-.89-1-1-1.13.58-10.35 7.47-10 9Z"/><path fill="#F9F8FB" stroke="None" d="M420 623c7.25 1.91 14.67 2.48 22 4-.02-.33 9.43-8.85 10-9-7.52-1.98-15.33-2.73-23-4-.18.92-8.05 8.76-9 9Z"/><path fill="#A292E7" stroke="None" d="M442 627c.85.18 1.21.71 2 1 .87-.15 10.21-8.1 10-9-.73-.25-1.27-.81-2-1-.57.15-10.02 8.67-10 9Z"/><path fill="#F8F8FB" stroke="None" d="M444 628c7.02 2.58 14.85 2.95 22 5 3.17-1.07 7.79-9.37 10-10-7.2-1.63-15.04-1.65-22-4 .21.9-9.13 8.85-10 9Z"/><path fill="#A191E4" stroke="None" d="M466 633c1.02.29 2.01.74 3 1 2.28-.65 6.64-9.29 10-10-.99-.28-2.05-.78-3-1-2.21.63-6.83 8.93-10 10Z"/><path fill="#F8F7FB" stroke="None" d="M469 634c7.21 1.88 14.65 2.78 22 4 3.06-4.55 9.19-5.97 12-11-2.08-2.32-4.92-.07-7 0-5.84.2-11.59-1.5-17-3-3.36.71-7.72 9.35-10 10Z"/><path fill="#A696EA" fill-opacity=".47" stroke="None" d="M91 646c-.06.29.65.89 1 1 9.19-6.82 18.43-14.08 27-22-4.07 2.79-11.45 7.03-14.75 10.25S91.81 641.84 91 646Z"/><path fill="#FAFAFC" stroke="None" d="M492 639c9.03 1.95 18.14 3.5 27 6 3.93-4.26 9.26-7.48 14-11-.27-4.6-12.06-1.69-15.78-4.22-3.71-2.53-10.99-1.43-14.52.92s-7.05 7.21-10.7 8.3Z"/><path fill="#E6E3F0" stroke="None" d="M654 644c-16.2-4.79-33.27-7.03-50-10 5.16 5.19 15.98 5.21 23.99 7.01s18.34 4.3 26.01 2.99ZM642 655c-5.73-4.69-16.67-4.54-24.78-6.22-8.1-1.68-17.27-4.61-25.22-3.78 15.07 5.6 34.02 7.97 50 10Z"/><path fill="#271E45" stroke="None" d="M260 659c-3.56 11.9 14.45 12.35 22.32 15.68s20.33 6.61 28.61 9.39c8.27 2.79 19.77 7.55 27.85 9.15s15.91-9.53 21.47-14.97S375.73 666.99 379 660v-10c-11.87 11.79-24.72 22.65-36 35-27.8-8.26-55.21-17.8-83-26Z"/><path fill="#D4C9F8" fill-opacity=".15" stroke="None" d="M648 722c-2.23 1.83-4.7 3.7-7 6 9.57-8.18 28.94-5.83 41-7-10.44 0-23.82-1.26-34 1Z"/></svg>